<svg xmlns="http://www.w3.org/2000/svg" viewBox="0 0 240.79 79.98"><defs><style>.cls-1{fill:#991f1f;}</style></defs><g id="Layer_2" data-name="Layer 2"><g id="Layer_1-2" data-name="Layer 1"><path class="cls-1" d="M1.23.6H16.67a13.94,13.94,0,0,1,4.4.63A8.65,8.65,0,0,1,24.21,3,7.38,7.38,0,0,1,26.1,5.75a8.87,8.87,0,0,1,.64,3.4,7.33,7.33,0,0,1-1,4A7.49,7.49,0,0,1,23,15.68a8.6,8.6,0,0,1,3.78,2.68,7.08,7.08,0,0,1,1.39,4.52,8.84,8.84,0,0,1-.69,3.52,8,8,0,0,1-2,2.79A9.13,9.13,0,0,1,22.24,31a13.11,13.11,0,0,1-4.21.64H1.23Zm8,7.24v4.93h6.57a3.13,3.13,0,0,0,2.29-.67,2.49,2.49,0,0,0,.65-1.79,2.54,2.54,0,0,0-.61-1.79,2.43,2.43,0,0,0-1.89-.68ZM9.19,19v5.45h8a2.9,2.9,0,0,0,2.29-.77,3,3,0,0,0,.66-2,2.77,2.77,0,0,0-.66-1.93A3,3,0,0,0,17.15,19Z"/><path class="cls-1" d="M72.78.6V18.07a16.36,16.36,0,0,1-.93,5.57,12.5,12.5,0,0,1-7.23,7.5,16,16,0,0,1-6.12,1.09,16.11,16.11,0,0,1-6.17-1.09,12.42,12.42,0,0,1-4.46-3,12.69,12.69,0,0,1-2.7-4.49,16.36,16.36,0,0,1-.92-5.57V.6h8v17a7.54,7.54,0,0,0,1.59,5.17,5.94,5.94,0,0,0,4.7,1.79,6,6,0,0,0,4.75-1.79,7.45,7.45,0,0,0,1.61-5.17V.6Z"/><path class="cls-1" d="M96.78,22.32v.2a1.68,1.68,0,0,0,.32.94,3.2,3.2,0,0,0,1,.91,5.91,5.91,0,0,0,1.63.7,8.6,8.6,0,0,0,2.35.28,5.54,5.54,0,0,0,3.08-.62,1.68,1.68,0,0,0,.86-1.29,2,2,0,0,0-1.23-1.71,23.93,23.93,0,0,0-4.06-1.67c-1.25-.4-2.54-.87-3.88-1.42a17.38,17.38,0,0,1-3.68-2,10.33,10.33,0,0,1-2.77-2.9,7.45,7.45,0,0,1-1.09-4.1,8.69,8.69,0,0,1,.89-4,8.78,8.78,0,0,1,2.51-3A11.55,11.55,0,0,1,96.5.68,16.8,16.8,0,0,1,101.39,0a17.3,17.3,0,0,1,5,.7,12,12,0,0,1,4,2,9.73,9.73,0,0,1,2.66,3.16,8.78,8.78,0,0,1,1,4.16v.44h-7.76v-.28A2.6,2.6,0,0,0,106,9a3.22,3.22,0,0,0-.9-1.07,4.65,4.65,0,0,0-1.49-.78,6.58,6.58,0,0,0-2.09-.3,4.9,4.9,0,0,0-2.9.66A1.83,1.83,0,0,0,97.77,9,1.82,1.82,0,0,0,99,10.54a28,28,0,0,0,4,1.6c1.06.37,2.26.83,3.62,1.37a18.17,18.17,0,0,1,3.8,2.07,11.88,11.88,0,0,1,3,3.06A7.65,7.65,0,0,1,114.53,23a8.32,8.32,0,0,1-.94,4A8.21,8.21,0,0,1,111,29.88a12.24,12.24,0,0,1-3.9,1.76,19.44,19.44,0,0,1-4.91.59A20.39,20.39,0,0,1,97,31.6a13.67,13.67,0,0,1-4.18-1.85,9.1,9.1,0,0,1-2.79-3,8.15,8.15,0,0,1-1-4.06v-.36Z"/><path class="cls-1" d="M129.29.6h27.3V8.32h-9.67V31.64h-8V8.32h-9.67Z"/><path class="cls-1" d="M172.58.6h23.84V8.32H180.54v4.45h13.05V20H180.54v4h15.88v7.68H172.58Z"/><path class="cls-1" d="M228.57.6a13.8,13.8,0,0,1,5.18.89,10.08,10.08,0,0,1,3.62,2.45,10.06,10.06,0,0,1,2.13,3.62,13.76,13.76,0,0,1,.69,4.38,12.94,12.94,0,0,1-.38,3.18A11.22,11.22,0,0,1,238.68,18a10.24,10.24,0,0,1-1.91,2.42,9.73,9.73,0,0,1-2.71,1.81l6.73,9.4h-9.51l-5.89-8.32h-4.06v8.32h-7.92V.6Zm-7.24,7.24v8.28h6.8a5.48,5.48,0,0,0,2-.34,3.85,3.85,0,0,0,1.36-.9,3.48,3.48,0,0,0,.75-1.31,5.07,5.07,0,0,0,.24-1.55,4.53,4.53,0,0,0-1-3,4.22,4.22,0,0,0-3.39-1.19Z"/><path class="cls-1" d="M7.76,70.08v.2a1.76,1.76,0,0,0,.32.93,3.08,3.08,0,0,0,.95.91,5.75,5.75,0,0,0,1.63.7A8.65,8.65,0,0,0,13,73.1a5.49,5.49,0,0,0,3.09-.62A1.66,1.66,0,0,0,17,71.19a2,2,0,0,0-1.23-1.71,23.58,23.58,0,0,0-4.06-1.67c-1.25-.4-2.54-.87-3.88-1.41a18.32,18.32,0,0,1-3.68-2,10.51,10.51,0,0,1-2.77-2.91,7.45,7.45,0,0,1-1.09-4.1,8.54,8.54,0,0,1,3.4-7,11.65,11.65,0,0,1,3.84-1.93,16.87,16.87,0,0,1,4.9-.68,17.28,17.28,0,0,1,5,.7,12,12,0,0,1,4,2,9.61,9.61,0,0,1,2.66,3.16,8.78,8.78,0,0,1,1,4.16v.44H17.31v-.28a2.53,2.53,0,0,0-.3-1.15,3.34,3.34,0,0,0-.89-1.08,4.82,4.82,0,0,0-1.5-.78,6.83,6.83,0,0,0-2.08-.29,4.92,4.92,0,0,0-2.91.65,1.86,1.86,0,0,0-.88,1.46c0,.61.4,1.12,1.18,1.55a29.55,29.55,0,0,0,4,1.59c1.06.37,2.27.83,3.62,1.37a19.14,19.14,0,0,1,3.8,2.07,11.76,11.76,0,0,1,3,3.07,7.59,7.59,0,0,1,1.22,4.35A8.1,8.1,0,0,1,22,77.64a12.43,12.43,0,0,1-3.9,1.75,19.07,19.07,0,0,1-4.92.59A20.39,20.39,0,0,1,8,79.35,13.43,13.43,0,0,1,3.8,77.5a9,9,0,0,1-2.79-3,8.12,8.12,0,0,1-1-4.06v-.35Z"/><path class="cls-1" d="M48.47,79.39l-8.72-31h8.48l5,18.5,5.81-18.5h7.09L72,66.81l5-18.46h8.52l-8.72,31H68.52l-5.93-18-5.88,18Z"/><path class="cls-1" d="M99.48,63.87a15.06,15.06,0,0,1,1.32-6.27,16.37,16.37,0,0,1,3.56-5.11A16.77,16.77,0,0,1,109.61,49a16.47,16.47,0,0,1,12.73,0,16.7,16.7,0,0,1,5.26,3.46,16.15,16.15,0,0,1,3.54,5.11,15.88,15.88,0,0,1,0,12.54,16.15,16.15,0,0,1-3.54,5.11,16.87,16.87,0,0,1-5.26,3.46,16.59,16.59,0,0,1-12.73,0,16.94,16.94,0,0,1-5.25-3.46,16.37,16.37,0,0,1-3.56-5.11A15.06,15.06,0,0,1,99.48,63.87Zm8,0a8.31,8.31,0,0,0,.66,3.3A8.23,8.23,0,0,0,110,69.86a8.8,8.8,0,0,0,2.68,1.79,8.73,8.73,0,0,0,6.61,0A8.64,8.64,0,0,0,122,69.86a8.5,8.5,0,0,0,1.79-2.69,8.7,8.7,0,0,0,0-6.6,8.25,8.25,0,0,0-4.46-4.48,8.6,8.6,0,0,0-6.61,0A8.62,8.62,0,0,0,110,57.88a8.23,8.23,0,0,0-1.81,2.69A8.31,8.31,0,0,0,107.52,63.87Z"/><path class="cls-1" d="M164,48.35a13.74,13.74,0,0,1,5.17.89,10,10,0,0,1,3.62,2.45A9.86,9.86,0,0,1,175,55.31a13.81,13.81,0,0,1,.32,7.56,10.89,10.89,0,0,1-1.14,2.89,10.29,10.29,0,0,1-1.91,2.43,9.9,9.9,0,0,1-2.7,1.81l6.72,9.39h-9.51l-5.89-8.32h-4.05v8.32h-7.92v-31Zm-7.24,7.24v8.28h6.8a5.32,5.32,0,0,0,2-.34,3.59,3.59,0,0,0,1.35-.9,3.3,3.3,0,0,0,.76-1.31,5.07,5.07,0,0,0,.24-1.55,4.51,4.51,0,0,0-1-3,4.17,4.17,0,0,0-3.38-1.2Z"/><path class="cls-1" d="M192.48,48.35h14.4a15.57,15.57,0,0,1,6.39,1.23,12.93,12.93,0,0,1,4.6,3.37,14.36,14.36,0,0,1,2.76,4.95,18.66,18.66,0,0,1,.94,6,18.86,18.86,0,0,1-.94,6,14.18,14.18,0,0,1-2.76,4.93,12.86,12.86,0,0,1-4.6,3.34,15.4,15.4,0,0,1-6.39,1.24h-14.4Zm8,7.72V71.71h5.85a7.85,7.85,0,0,0,3.14-.58,6.22,6.22,0,0,0,2.27-1.61,6.69,6.69,0,0,0,1.37-2.47,10.22,10.22,0,0,0,.46-3.18,8.4,8.4,0,0,0-1.83-5.65,6.72,6.72,0,0,0-5.41-2.15Z"/></g></g></svg>