<svg xmlns="http://www.w3.org/2000/svg" viewBox="0 0 350.78 79.98"><defs><style>.cls-1{fill:#991f1f;}</style></defs><g id="Layer_2" data-name="Layer 2"><g id="Layer_1-2" data-name="Layer 1"><path class="cls-1" d="M8,22.32v.2a1.68,1.68,0,0,0,.32.94,3.2,3.2,0,0,0,.95.91,6,6,0,0,0,1.63.7,8.65,8.65,0,0,0,2.35.28,5.6,5.6,0,0,0,3.09-.62,1.66,1.66,0,0,0,.85-1.29A2,2,0,0,0,16,21.73a23.93,23.93,0,0,0-4.06-1.67c-1.25-.4-2.54-.87-3.88-1.42a17.38,17.38,0,0,1-3.68-2,10.33,10.33,0,0,1-2.77-2.9A7.45,7.45,0,0,1,.48,9.63a8.81,8.81,0,0,1,.89-4,8.89,8.89,0,0,1,2.51-3A11.55,11.55,0,0,1,7.72.68,16.87,16.87,0,0,1,12.62,0a17.28,17.28,0,0,1,5,.7,12,12,0,0,1,4,2,9.73,9.73,0,0,1,2.66,3.16,8.78,8.78,0,0,1,1,4.16v.44H17.55v-.28A2.6,2.6,0,0,0,17.25,9,3.31,3.31,0,0,0,16.36,8a4.82,4.82,0,0,0-1.5-.78,6.54,6.54,0,0,0-2.09-.3,4.9,4.9,0,0,0-2.9.66A1.85,1.85,0,0,0,9,9a1.82,1.82,0,0,0,1.18,1.55,28,28,0,0,0,4,1.6c1.06.37,2.27.83,3.62,1.37a18.17,18.17,0,0,1,3.8,2.07,11.88,11.88,0,0,1,3,3.06A7.65,7.65,0,0,1,25.75,23a8.32,8.32,0,0,1-.94,4,8.12,8.12,0,0,1-2.59,2.88,12.28,12.28,0,0,1-3.89,1.76,19.52,19.52,0,0,1-4.92.59,20.39,20.39,0,0,1-5.19-.63A13.67,13.67,0,0,1,4,29.75a9.1,9.1,0,0,1-2.79-3,8.15,8.15,0,0,1-1-4.06v-.36Z"/><path class="cls-1" d="M42.42.6H56.11a13.69,13.69,0,0,1,5.39,1A10.81,10.81,0,0,1,65.3,4.2,10.68,10.68,0,0,1,67.55,8a13.79,13.79,0,0,1,.74,4.5,14.52,14.52,0,0,1-.74,4.65A10.59,10.59,0,0,1,65.3,21a10.81,10.81,0,0,1-3.8,2.63,13.69,13.69,0,0,1-5.39,1H50.38v7.05h-8Zm8,7.24v9.51h5.29A4.17,4.17,0,0,0,59.21,16a5.58,5.58,0,0,0,1-3.44A6.54,6.54,0,0,0,60,10.76a4,4,0,0,0-.8-1.51,3.79,3.79,0,0,0-1.43-1,5.34,5.34,0,0,0-2.11-.38Z"/><path class="cls-1" d="M99.88.6l12.54,31h-8.68L102,27.1H89.81L88.1,31.64H79.43L92,.6ZM95.94,10.78,92.52,19.9h6.8Z"/><path class="cls-1" d="M143.1.6a13.74,13.74,0,0,1,5.17.89,9.91,9.91,0,0,1,3.62,2.45A9.78,9.78,0,0,1,154,7.56a13.76,13.76,0,0,1,.7,4.38,13.44,13.44,0,0,1-.38,3.18A10.89,10.89,0,0,1,153.2,18a10.24,10.24,0,0,1-1.91,2.42,9.83,9.83,0,0,1-2.7,1.81l6.72,9.4H145.8l-5.89-8.32h-4.06v8.32h-7.91V.6Zm-7.25,7.24v8.28h6.81a5.52,5.52,0,0,0,2-.34,3.72,3.72,0,0,0,1.35-.9,3.37,3.37,0,0,0,.76-1.31A5.07,5.07,0,0,0,147,12a4.54,4.54,0,0,0-1-3,4.2,4.2,0,0,0-3.38-1.19Z"/><path class="cls-1" d="M169.64.6h27.3V8.32h-9.67V31.64h-8V8.32h-9.67Z"/><path class="cls-1" d="M226.23.6l12.53,31h-8.68l-1.71-4.54H216.16l-1.71,4.54h-8.68L218.35.6Zm-3.94,10.18-3.43,9.12h6.81Z"/><path class="cls-1" d="M254.28,31.64V.6H261L274.89,18V.6h7.92v31h-6.72L262.24,14.33V31.64Z"/><path class="cls-1" d="M299.8,13.41a23.29,23.29,0,0,0,1.75-2.05,13.87,13.87,0,0,0,1.2-1.77c-.11-.11-.3-.28-.58-.52a7.38,7.38,0,0,1-.86-.89,5.53,5.53,0,0,1-.77-1.32,4.4,4.4,0,0,1-.34-1.81,4.76,4.76,0,0,1,.4-1.95A5,5,0,0,1,303.26.44a4.92,4.92,0,0,1,3.84,0,4.86,4.86,0,0,1,1.58,1.07,5.53,5.53,0,0,1,1.09,1.69,5.81,5.81,0,0,1,.42,2.27,9,9,0,0,1-1.95,5.15,38.44,38.44,0,0,1-5.33,5.83Z"/><path class="cls-1" d="M333,22.32v.2a1.76,1.76,0,0,0,.32.94,3.2,3.2,0,0,0,.95.91,6,6,0,0,0,1.63.7,8.65,8.65,0,0,0,2.35.28,5.58,5.58,0,0,0,3.09-.62,1.66,1.66,0,0,0,.85-1.29A2,2,0,0,0,341,21.73a23.58,23.58,0,0,0-4.06-1.67c-1.25-.4-2.54-.87-3.88-1.42a17.38,17.38,0,0,1-3.68-2,10.33,10.33,0,0,1-2.77-2.9,7.45,7.45,0,0,1-1.09-4.1,8.81,8.81,0,0,1,.89-4,8.89,8.89,0,0,1,2.51-3A11.75,11.75,0,0,1,332.75.68a16.87,16.87,0,0,1,4.9-.68,17.28,17.28,0,0,1,5,.7,12,12,0,0,1,4,2,9.76,9.76,0,0,1,2.67,3.16,8.89,8.89,0,0,1,1,4.16v.44h-7.76v-.28a2.6,2.6,0,0,0-.3-1.16A3.31,3.31,0,0,0,341.39,8a4.82,4.82,0,0,0-1.5-.78,6.52,6.52,0,0,0-2.08-.3,4.92,4.92,0,0,0-2.91.66A1.85,1.85,0,0,0,334,9a1.83,1.83,0,0,0,1.18,1.55,28,28,0,0,0,4,1.6c1.06.37,2.27.83,3.62,1.37a18.17,18.17,0,0,1,3.8,2.07,11.88,11.88,0,0,1,3,3.06A7.65,7.65,0,0,1,350.78,23a8.06,8.06,0,0,1-3.52,6.88,12.34,12.34,0,0,1-3.9,1.76,19.52,19.52,0,0,1-4.92.59,20.39,20.39,0,0,1-5.19-.63,13.67,13.67,0,0,1-4.18-1.85,9,9,0,0,1-2.78-3,8.05,8.05,0,0,1-1-4.06v-.36Z"/><path class="cls-1" d="M0,63.87A15.22,15.22,0,0,1,1.31,57.6,16.65,16.65,0,0,1,10.13,49a16.47,16.47,0,0,1,12.73,0,16.66,16.66,0,0,1,5.25,3.46,16.34,16.34,0,0,1,3.55,5.11,15.88,15.88,0,0,1,0,12.54,16.34,16.34,0,0,1-3.55,5.11,16.83,16.83,0,0,1-5.25,3.46A16.16,16.16,0,0,1,16.47,80a16.06,16.06,0,0,1-6.34-1.27,16.65,16.65,0,0,1-8.82-8.57A15.22,15.22,0,0,1,0,63.87Zm8,0a8.31,8.31,0,0,0,.66,3.3,8.07,8.07,0,0,0,1.81,2.69,8.68,8.68,0,0,0,2.68,1.79,8.21,8.21,0,0,0,3.28.65,8.31,8.31,0,0,0,3.33-.65,8.48,8.48,0,0,0,2.66-1.79,8.18,8.18,0,0,0,1.79-2.69,8.58,8.58,0,0,0,0-6.6,8.18,8.18,0,0,0-1.79-2.69,8.38,8.38,0,0,0-6-2.45,8.21,8.21,0,0,0-3.28.66,8.51,8.51,0,0,0-2.68,1.79A8.07,8.07,0,0,0,8.7,60.57,8.31,8.31,0,0,0,8,63.87Z"/><path class="cls-1" d="M49.38,48.35H63.79a15.63,15.63,0,0,1,6.39,1.23A13,13,0,0,1,74.77,53a14.54,14.54,0,0,1,2.77,4.95,18.94,18.94,0,0,1,.93,6,19.15,19.15,0,0,1-.93,6,14.36,14.36,0,0,1-2.77,4.93,12.91,12.91,0,0,1-4.59,3.34,15.47,15.47,0,0,1-6.39,1.24H49.38Zm8,7.72V71.71h5.85a7.9,7.9,0,0,0,3.15-.58,6.18,6.18,0,0,0,2.26-1.61A6.85,6.85,0,0,0,70,67.05a10.53,10.53,0,0,0,.45-3.18,8.4,8.4,0,0,0-1.83-5.65,6.72,6.72,0,0,0-5.41-2.15Z"/><path class="cls-1" d="M105.93,59.61l6.88-11.26h9.4L109.91,68V79.39H102V68L89.73,48.35h9.36Z"/><path class="cls-1" d="M142.46,70.08v.2a1.76,1.76,0,0,0,.32.93,3.08,3.08,0,0,0,.95.91,5.69,5.69,0,0,0,1.64.7,8.53,8.53,0,0,0,2.34.28,5.49,5.49,0,0,0,3.09-.62,1.66,1.66,0,0,0,.85-1.29,2,2,0,0,0-1.23-1.71,23.58,23.58,0,0,0-4.06-1.67c-1.25-.4-2.54-.87-3.88-1.41a18.32,18.32,0,0,1-3.68-2A10.65,10.65,0,0,1,136,61.48a7.45,7.45,0,0,1-1.09-4.1,8.54,8.54,0,0,1,3.4-7,11.75,11.75,0,0,1,3.84-1.93,16.87,16.87,0,0,1,4.9-.68,17.28,17.28,0,0,1,5,.7,12,12,0,0,1,4,2,9.64,9.64,0,0,1,2.67,3.16,8.77,8.77,0,0,1,1,4.16v.44H152v-.28a2.53,2.53,0,0,0-.3-1.15,3.34,3.34,0,0,0-.89-1.08,4.87,4.87,0,0,0-1.49-.78,6.94,6.94,0,0,0-2.09-.29,4.92,4.92,0,0,0-2.91.65,1.84,1.84,0,0,0-.87,1.46c0,.61.39,1.12,1.17,1.55a29.55,29.55,0,0,0,4,1.59c1.06.37,2.27.83,3.62,1.37a19.14,19.14,0,0,1,3.8,2.07,11.8,11.8,0,0,1,3,3.07,7.67,7.67,0,0,1,1.21,4.35,8.1,8.1,0,0,1-3.52,6.89,12.23,12.23,0,0,1-3.9,1.75,19.07,19.07,0,0,1-4.92.59,20.45,20.45,0,0,1-5.19-.63,13.43,13.43,0,0,1-4.18-1.85,8.87,8.87,0,0,1-2.78-3,8,8,0,0,1-1-4.06v-.35Z"/><path class="cls-1" d="M183.41,70.08v.2a1.68,1.68,0,0,0,.32.93,3.08,3.08,0,0,0,1,.91,5.75,5.75,0,0,0,1.63.7,8.65,8.65,0,0,0,2.35.28,5.51,5.51,0,0,0,3.09-.62,1.69,1.69,0,0,0,.85-1.29,2,2,0,0,0-1.23-1.71,23.93,23.93,0,0,0-4.06-1.67c-1.25-.4-2.54-.87-3.88-1.41a18.32,18.32,0,0,1-3.68-2A10.51,10.51,0,0,1,177,61.48a7.45,7.45,0,0,1-1.09-4.1,8.54,8.54,0,0,1,3.4-7,11.55,11.55,0,0,1,3.84-1.93,16.85,16.85,0,0,1,4.89-.68,17.3,17.3,0,0,1,5,.7,12,12,0,0,1,4,2,9.73,9.73,0,0,1,2.66,3.16,8.78,8.78,0,0,1,1,4.16v.44H193v-.28a2.53,2.53,0,0,0-.3-1.15,3.25,3.25,0,0,0-.9-1.08,4.65,4.65,0,0,0-1.49-.78,6.85,6.85,0,0,0-2.09-.29,4.91,4.91,0,0,0-2.9.65,1.83,1.83,0,0,0-.88,1.46c0,.61.39,1.12,1.18,1.55a29.55,29.55,0,0,0,4,1.59c1.06.37,2.26.83,3.62,1.37a19.14,19.14,0,0,1,3.8,2.07,11.76,11.76,0,0,1,3,3.07,7.59,7.59,0,0,1,1.22,4.35,8.08,8.08,0,0,1-3.53,6.89,12.23,12.23,0,0,1-3.9,1.75,18.94,18.94,0,0,1-4.91.59,20.39,20.39,0,0,1-5.19-.63,13.43,13.43,0,0,1-4.18-1.85,9,9,0,0,1-2.79-3,8.12,8.12,0,0,1-1-4.06v-.35Z"/><path class="cls-1" d="M217.83,48.35h23.84v7.72H225.79v4.46h13.05v7.2H225.79v4h15.88v7.68H217.83Z"/><path class="cls-1" d="M272.46,59.61l6.89-11.26h9.39L276.44,68V79.39h-7.91V68L256.27,48.35h9.35Z"/></g></g></svg>