<svg xmlns="http://www.w3.org/2000/svg" viewBox="0 0 218.19 79.98"><defs><style>.cls-1{fill:#991f1f;}</style></defs><g id="Layer_2" data-name="Layer 2"><g id="Layer_1-2" data-name="Layer 1"><path class="cls-1" d="M8.44,22.32v.2a1.75,1.75,0,0,0,.31.94,3.37,3.37,0,0,0,1,.91,5.91,5.91,0,0,0,1.63.7,8.6,8.6,0,0,0,2.35.28,5.56,5.56,0,0,0,3.08-.62,1.68,1.68,0,0,0,.86-1.29,2,2,0,0,0-1.24-1.71,23.4,23.4,0,0,0-4.05-1.67c-1.25-.4-2.54-.87-3.88-1.42a17.38,17.38,0,0,1-3.68-2A10.33,10.33,0,0,1,2,13.73,7.45,7.45,0,0,1,.92,9.63a8.69,8.69,0,0,1,.89-4,8.78,8.78,0,0,1,2.51-3A11.55,11.55,0,0,1,8.16.68,16.75,16.75,0,0,1,13.05,0a17.35,17.35,0,0,1,5,.7,12,12,0,0,1,4,2,9.73,9.73,0,0,1,2.66,3.16,8.78,8.78,0,0,1,1,4.16v.44H18v-.28A2.6,2.6,0,0,0,17.69,9,3.22,3.22,0,0,0,16.79,8a4.76,4.76,0,0,0-1.49-.78,6.58,6.58,0,0,0-2.09-.3,4.9,4.9,0,0,0-2.9.66A1.83,1.83,0,0,0,9.43,9a1.82,1.82,0,0,0,1.18,1.55,28.24,28.24,0,0,0,4,1.6c1.06.37,2.27.83,3.63,1.37A18.17,18.17,0,0,1,22,15.58a11.88,11.88,0,0,1,3,3.06A7.64,7.64,0,0,1,26.18,23a8,8,0,0,1-3.52,6.88,12.24,12.24,0,0,1-3.9,1.76,19.49,19.49,0,0,1-4.91.59,20.39,20.39,0,0,1-5.19-.63,13.67,13.67,0,0,1-4.18-1.85,9.1,9.1,0,0,1-2.79-3,8,8,0,0,1-1-4.06v-.36Z"/><path class="cls-1" d="M71,.6V18.07A16.36,16.36,0,0,1,70,23.64a12.5,12.5,0,0,1-7.23,7.5,16,16,0,0,1-6.12,1.09,16.11,16.11,0,0,1-6.17-1.09,12.42,12.42,0,0,1-4.46-3,12.86,12.86,0,0,1-2.71-4.49,16.6,16.6,0,0,1-.91-5.57V.6h8v17A7.54,7.54,0,0,0,52,22.76a5.94,5.94,0,0,0,4.7,1.79,6,6,0,0,0,4.75-1.79A7.45,7.45,0,0,0,63,17.59V.6Z"/><path class="cls-1" d="M95,22.32v.2a1.68,1.68,0,0,0,.32.94,3.2,3.2,0,0,0,1,.91,5.91,5.91,0,0,0,1.63.7,8.6,8.6,0,0,0,2.35.28,5.54,5.54,0,0,0,3.08-.62,1.68,1.68,0,0,0,.86-1.29,2,2,0,0,0-1.23-1.71,23.93,23.93,0,0,0-4.06-1.67c-1.25-.4-2.54-.87-3.88-1.42a17.38,17.38,0,0,1-3.68-2,10.33,10.33,0,0,1-2.77-2.9,7.45,7.45,0,0,1-1.09-4.1,8.69,8.69,0,0,1,.89-4,8.78,8.78,0,0,1,2.51-3A11.55,11.55,0,0,1,94.67.68,16.8,16.8,0,0,1,99.56,0a17.35,17.35,0,0,1,5,.7,12,12,0,0,1,4,2,9.73,9.73,0,0,1,2.66,3.16,8.78,8.78,0,0,1,1,4.16v.44H104.5v-.28A2.6,2.6,0,0,0,104.2,9,3.22,3.22,0,0,0,103.3,8a4.65,4.65,0,0,0-1.49-.78,6.58,6.58,0,0,0-2.09-.3,4.9,4.9,0,0,0-2.9.66A1.83,1.83,0,0,0,95.94,9a1.82,1.82,0,0,0,1.18,1.55,28,28,0,0,0,4,1.6c1.06.37,2.26.83,3.62,1.37a18.17,18.17,0,0,1,3.8,2.07,11.88,11.88,0,0,1,3,3.06A7.65,7.65,0,0,1,112.7,23a8.32,8.32,0,0,1-.94,4,8.21,8.21,0,0,1-2.59,2.88,12.24,12.24,0,0,1-3.9,1.76,19.44,19.44,0,0,1-4.91.59,20.39,20.39,0,0,1-5.19-.63A13.67,13.67,0,0,1,91,29.75a9.1,9.1,0,0,1-2.79-3,8.15,8.15,0,0,1-1-4.06v-.36Z"/><path class="cls-1" d="M157.9.6v31h-8V20.1H137.29V31.64h-7.92V.6h7.92V12.65h12.65V.6Z"/><path class="cls-1" d="M183.77.6v31h-8V.6Z"/><path class="cls-1" d="M0,48.35H27.3v7.72H17.63V79.39h-8V56.07H0Z"/><path class="cls-1" d="M41.82,63.87a15.06,15.06,0,0,1,1.32-6.27,16.37,16.37,0,0,1,3.56-5.11A16.77,16.77,0,0,1,52,49a16.47,16.47,0,0,1,12.73,0,16.7,16.7,0,0,1,5.26,3.46,16.15,16.15,0,0,1,3.54,5.11,15.88,15.88,0,0,1,0,12.54,16.15,16.15,0,0,1-3.54,5.11,16.87,16.87,0,0,1-5.26,3.46,16.59,16.59,0,0,1-12.73,0,16.94,16.94,0,0,1-5.25-3.46,16.37,16.37,0,0,1-3.56-5.11A15.06,15.06,0,0,1,41.82,63.87Zm8,0a8.31,8.31,0,0,0,.66,3.3,8.23,8.23,0,0,0,1.81,2.69A8.8,8.8,0,0,0,55,71.65a8.73,8.73,0,0,0,6.61,0,8.64,8.64,0,0,0,2.67-1.79,8.44,8.44,0,0,0-2.67-13.77,8.6,8.6,0,0,0-6.61,0,8.62,8.62,0,0,0-2.68,1.79,8.23,8.23,0,0,0-1.81,2.69A8.31,8.31,0,0,0,49.86,63.87Z"/><path class="cls-1" d="M97.49,79.39l-8.71-31h8.47l5,18.5,5.81-18.5h7.08L121,66.81l5-18.46h8.51l-8.71,31h-8.24l-5.93-18-5.89,18Z"/><path class="cls-1" d="M150,48.35h23.84v7.72H157.94v4.46H171v7.2H157.94v4h15.88v7.68H150Z"/><path class="cls-1" d="M206,48.35a13.74,13.74,0,0,1,5.17.89,10.16,10.16,0,0,1,3.63,2.45,10,10,0,0,1,2.12,3.62,13.81,13.81,0,0,1,.32,7.56,11.22,11.22,0,0,1-1.13,2.89,10.56,10.56,0,0,1-1.91,2.43A10,10,0,0,1,211.46,70l6.73,9.39h-9.51l-5.89-8.32h-4.06v8.32h-7.92v-31Zm-7.24,7.24v8.28h6.8a5.29,5.29,0,0,0,2-.34,3.72,3.72,0,0,0,1.36-.9,3.41,3.41,0,0,0,.75-1.31,5.07,5.07,0,0,0,.24-1.55,4.5,4.5,0,0,0-1-3,4.2,4.2,0,0,0-3.39-1.2Z"/></g></g></svg>