<svg xmlns="http://www.w3.org/2000/svg" viewBox="0 0 331.92 79.39"><defs><style>.cls-1{fill:#991f1f;}</style></defs><g id="Layer_2" data-name="Layer 2"><g id="Layer_1-2" data-name="Layer 1"><path class="cls-1" d="M7.76,22.32v.2a1.76,1.76,0,0,0,.32.94,3.2,3.2,0,0,0,.95.91,6,6,0,0,0,1.63.7,8.65,8.65,0,0,0,2.35.28,5.58,5.58,0,0,0,3.09-.62A1.66,1.66,0,0,0,17,23.44a2,2,0,0,0-1.23-1.71,23.58,23.58,0,0,0-4.06-1.67c-1.25-.4-2.54-.87-3.88-1.42a17.38,17.38,0,0,1-3.68-2,10.33,10.33,0,0,1-2.77-2.9A7.45,7.45,0,0,1,.24,9.63a8.81,8.81,0,0,1,.89-4,8.89,8.89,0,0,1,2.51-3A11.65,11.65,0,0,1,7.48.68,16.87,16.87,0,0,1,12.38,0a17.28,17.28,0,0,1,5,.7,12,12,0,0,1,4,2,9.61,9.61,0,0,1,2.66,3.16,8.78,8.78,0,0,1,1,4.16v.44H17.31v-.28A2.6,2.6,0,0,0,17,9,3.31,3.31,0,0,0,16.12,8a4.82,4.82,0,0,0-1.5-.78,6.52,6.52,0,0,0-2.08-.3,4.92,4.92,0,0,0-2.91.66A1.85,1.85,0,0,0,8.75,9a1.83,1.83,0,0,0,1.18,1.55,28,28,0,0,0,4,1.6c1.06.37,2.27.83,3.62,1.37a18.17,18.17,0,0,1,3.8,2.07,11.88,11.88,0,0,1,3,3.06A7.65,7.65,0,0,1,25.51,23,8.06,8.06,0,0,1,22,29.88a12.44,12.44,0,0,1-3.9,1.76,19.52,19.52,0,0,1-4.92.59A20.39,20.39,0,0,1,8,31.6,13.67,13.67,0,0,1,3.8,29.75a9.1,9.1,0,0,1-2.79-3,8.15,8.15,0,0,1-1-4.06v-.36Z"/><path class="cls-1" d="M48.47,31.64,39.75.6h8.48l5,18.5L59.05.6h7.09L72,19.06,77,.6h8.52l-8.72,31H68.52l-5.93-18-5.88,18Z"/><path class="cls-1" d="M108.92.6v31h-8V.6Z"/><path class="cls-1" d="M126.82,31.64V.6h8l9,19.61,9-19.61h8v31h-7.92V17L146.4,30.44h-5.21L134.74,17V31.64Z"/><path class="cls-1" d="M178.67,31.64V.6h8l9,19.61,9-19.61h8v31H204.7V17l-6.45,13.41H193L186.59,17V31.64Z"/><path class="cls-1" d="M238.48.6v31h-8V.6Z"/><path class="cls-1" d="M256.39,31.64V.6h6.76L277,18V.6h7.92v31h-6.73L264.35,14.33V31.64Z"/><path class="cls-1" d="M317,13.53h15V31.64h-6.25V28.73a7,7,0,0,1-3.3,2.63,12,12,0,0,1-4.54.87A16,16,0,0,1,311.46,31a17,17,0,0,1-5.23-3.46,16.41,16.41,0,0,1-3.56-5.12,15.05,15.05,0,0,1-1.32-6.26,15.06,15.06,0,0,1,1.32-6.27,16.26,16.26,0,0,1,3.56-5.11,17,17,0,0,1,5.23-3.47,16.56,16.56,0,0,1,13.81.5A16.77,16.77,0,0,1,331,6.49l-6.49,4.37a8.28,8.28,0,0,0-2.88-2.32,8.4,8.4,0,0,0-3.76-.86,8.31,8.31,0,0,0-3.3.66,8.18,8.18,0,0,0-2.69,1.79,8.29,8.29,0,0,0-1.79,2.68,8.55,8.55,0,0,0,1.79,9.3,8.45,8.45,0,0,0,6,2.44,7.79,7.79,0,0,0,3.82-.95A8.23,8.23,0,0,0,324.47,21v-.87H317Z"/><path class="cls-1" d="M9.19,48.35v31h-8v-31Z"/><path class="cls-1" d="M27.1,79.39v-31h6.76L47.71,65.7V48.35h7.92v31H48.91L35.06,62.08V79.39Z"/><path class="cls-1" d="M113,48.35a13.7,13.7,0,0,1,5.17.89,9.71,9.71,0,0,1,5.76,6.07,13.76,13.76,0,0,1,.69,4.38,12.94,12.94,0,0,1-.38,3.18,11.22,11.22,0,0,1-1.13,2.89,10.29,10.29,0,0,1-1.91,2.43A10,10,0,0,1,118.5,70l6.73,9.39h-9.51l-5.89-8.32h-4.06v8.32H97.85v-31Zm-7.24,7.24v8.28h6.8a5.29,5.29,0,0,0,2-.34,3.72,3.72,0,0,0,1.36-.9,3.41,3.41,0,0,0,.75-1.31,5.07,5.07,0,0,0,.24-1.55,4.5,4.5,0,0,0-1-3,4.19,4.19,0,0,0-3.39-1.2Z"/><path class="cls-1" d="M159.53,48.35l12.54,31h-8.68l-1.71-4.54H149.46l-1.71,4.54h-8.67l12.57-31Zm-3.94,10.19-3.42,9.11H159Z"/><path class="cls-1" d="M187.58,79.39v-31h8l9,19.62,9-19.62h8v31h-7.92V64.78l-6.45,13.41H202L195.5,64.78V79.39Z"/><path class="cls-1" d="M239.43,48.35h23.84v7.72H247.39v4.46h13.06v7.2H247.39v4h15.88v7.68H239.43Z"/><path class="cls-1" d="M280.26,79.39v-31H287L300.88,65.7V48.35h7.91v31h-6.72L288.22,62.08V79.39Z"/></g></g></svg>