<svg xmlns="http://www.w3.org/2000/svg" viewBox="0 0 234.5 79.39"><defs><style>.cls-1{fill:#991f1f;}</style></defs><g id="Layer_2" data-name="Layer 2"><g id="Layer_1-2" data-name="Layer 1"><path class="cls-1" d="M30,0V31H22.05V19.5H9.39V31H1.47V0H9.39V12.06H22.05V0Z"/><path class="cls-1" d="M55.87,0V31h-8V0Z"/><path class="cls-1" d="M73.78,0h14.4a15.6,15.6,0,0,1,6.39,1.23,13.11,13.11,0,0,1,4.6,3.37,14.62,14.62,0,0,1,2.76,5,18.94,18.94,0,0,1,.94,6,19.1,19.1,0,0,1-.94,6,14.34,14.34,0,0,1-2.76,4.93,13.19,13.19,0,0,1-4.6,3.35A15.6,15.6,0,0,1,88.18,31H73.78Zm8,7.72V23.36h5.84a7.87,7.87,0,0,0,3.15-.58A6.22,6.22,0,0,0,93,21.17a6.83,6.83,0,0,0,1.37-2.47,10.52,10.52,0,0,0,.46-3.18A8.42,8.42,0,0,0,93,9.87a6.74,6.74,0,0,0-5.42-2.15Z"/><path class="cls-1" d="M119.46,0h14.4a15.57,15.57,0,0,1,6.39,1.23,13,13,0,0,1,4.6,3.37,14.45,14.45,0,0,1,2.76,5,18.66,18.66,0,0,1,.94,6,18.82,18.82,0,0,1-.94,6,14.18,14.18,0,0,1-2.76,4.93,13.1,13.1,0,0,1-4.6,3.35A15.57,15.57,0,0,1,133.86,31h-14.4Zm8,7.72V23.36h5.85a7.85,7.85,0,0,0,3.14-.58,6.22,6.22,0,0,0,2.27-1.61,6.69,6.69,0,0,0,1.37-2.47,10.22,10.22,0,0,0,.46-3.18,8.42,8.42,0,0,0-1.83-5.65,6.72,6.72,0,0,0-5.41-2.15Z"/><path class="cls-1" d="M165.14,0H189V7.72H173.1v4.46h13.05v7.2H173.1v4H189V31H165.14Z"/><path class="cls-1" d="M206,31V0h6.76l13.85,17.35V0h7.92V31h-6.72L213.93,13.73V31Z"/><path class="cls-1" d="M0,63.27A15.22,15.22,0,0,1,1.31,57a16.65,16.65,0,0,1,8.82-8.57,16.06,16.06,0,0,1,6.34-1.27,16.16,16.16,0,0,1,6.39,1.27,16.83,16.83,0,0,1,5.25,3.46A16.34,16.34,0,0,1,31.66,57a15.88,15.88,0,0,1,0,12.54,16.34,16.34,0,0,1-3.55,5.11,16.66,16.66,0,0,1-5.25,3.46,16.47,16.47,0,0,1-12.73,0,16.65,16.65,0,0,1-8.82-8.57A15.22,15.22,0,0,1,0,63.27Zm8,0a8.31,8.31,0,0,0,.66,3.3,8.07,8.07,0,0,0,1.81,2.69,8.51,8.51,0,0,0,2.68,1.79,8.21,8.21,0,0,0,3.28.66,8.38,8.38,0,0,0,6-2.45,8.18,8.18,0,0,0,1.79-2.69,8.58,8.58,0,0,0,0-6.6,8.18,8.18,0,0,0-1.79-2.69,8.48,8.48,0,0,0-2.66-1.79,8.32,8.32,0,0,0-3.33-.66,8.21,8.21,0,0,0-3.28.66,8.68,8.68,0,0,0-2.68,1.79A8.07,8.07,0,0,0,8.7,60,8.31,8.31,0,0,0,8,63.27Z"/><path class="cls-1" d="M49.38,78.79v-31h6.77L70,65.1V47.75h7.92v31H71.19L57.34,61.48V78.79Z"/><path class="cls-1" d="M95.82,47.75h23.84v7.72H103.78v4.46h13v7.2h-13v4h15.88v7.68H95.82Z"/><path class="cls-1" d="M143.18,69.48v.2a1.68,1.68,0,0,0,.32.93,3.11,3.11,0,0,0,.95.92,5.63,5.63,0,0,0,1.63.69,8.6,8.6,0,0,0,2.35.28,5.56,5.56,0,0,0,3.08-.61,1.69,1.69,0,0,0,.86-1.3,2,2,0,0,0-1.24-1.71,25.13,25.13,0,0,0-4-1.67c-1.25-.4-2.54-.87-3.88-1.41a18.32,18.32,0,0,1-3.68-2,10.51,10.51,0,0,1-2.77-2.91,7.41,7.41,0,0,1-1.09-4.09,8.69,8.69,0,0,1,.89-4,8.91,8.91,0,0,1,2.51-3,11.74,11.74,0,0,1,3.84-1.93,16.76,16.76,0,0,1,4.89-.67,17.69,17.69,0,0,1,5,.69,12.43,12.43,0,0,1,4,2A9.83,9.83,0,0,1,159.51,53a8.81,8.81,0,0,1,1,4.16v.44h-7.76v-.28a2.56,2.56,0,0,0-.3-1.15,3.25,3.25,0,0,0-.9-1.08,5,5,0,0,0-1.49-.77A6.58,6.58,0,0,0,148,54a4.9,4.9,0,0,0-2.9.66,1.62,1.62,0,0,0,.3,3,28.51,28.51,0,0,0,4,1.59c1.07.37,2.27.83,3.63,1.38a18.6,18.6,0,0,1,3.8,2.06,11.76,11.76,0,0,1,3,3.07,7.64,7.64,0,0,1,1.21,4.36A8,8,0,0,1,157.4,77a12.23,12.23,0,0,1-3.9,1.75,19,19,0,0,1-4.91.6,20.38,20.38,0,0,1-5.19-.64,13.21,13.21,0,0,1-4.18-1.85,9.07,9.07,0,0,1-2.79-3,8.07,8.07,0,0,1-1-4.06v-.36Z"/></g></g></svg>