<svg xmlns="http://www.w3.org/2000/svg" viewBox="0 0 572.92 38.88"><defs><style>.cls-1{fill:#991f1f;}</style></defs><g id="Layer_2" data-name="Layer 2"><g id="Layer_1-2" data-name="Layer 1"><path class="cls-1" d="M5.18,27.31a20.57,20.57,0,0,0,4.35,1.8,13.32,13.32,0,0,0,3.43.51,6.26,6.26,0,0,0,3.53-.82,2.55,2.55,0,0,0,1.17-2.21,2.43,2.43,0,0,0-.43-1.37,3.26,3.26,0,0,0-1.49-1.1A12.33,12.33,0,0,0,13,23.38a26,26,0,0,0-4.32-.29V15.31a21.6,21.6,0,0,0,4.2-.33,8.55,8.55,0,0,0,2.54-.89,3.26,3.26,0,0,0,1.28-1.2A2.79,2.79,0,0,0,17,11.62a2.72,2.72,0,0,0-.86-1.92,3.48,3.48,0,0,0-2.64-.92,6.08,6.08,0,0,0-1.15.12,4.35,4.35,0,0,0-1.18.41,2.36,2.36,0,0,0-.91.84,2.56,2.56,0,0,0-.36,1.42v.19H.82v-1a9.41,9.41,0,0,1,1.1-4.61A10.82,10.82,0,0,1,4.8,2.81,13,13,0,0,1,8.86.72,15.45,15.45,0,0,1,13.54,0a16.33,16.33,0,0,1,4.8.72,13.66,13.66,0,0,1,4.15,2.06,10.66,10.66,0,0,1,2.9,3.27,8.55,8.55,0,0,1,1.11,4.37A10.32,10.32,0,0,1,25.42,15a10.19,10.19,0,0,1-3.53,3.89,11,11,0,0,1,4.2,3.55,8.66,8.66,0,0,1,1.46,4.95,9.85,9.85,0,0,1-1.15,4.8,11.26,11.26,0,0,1-3.1,3.6,14.19,14.19,0,0,1-4.53,2.28,18.55,18.55,0,0,1-5.47.79A25.77,25.77,0,0,1,6.79,38,28.67,28.67,0,0,1,0,35.18Z"/><path class="cls-1" d="M47.81.72H65.18a18.8,18.8,0,0,1,7.71,1.49,15.52,15.52,0,0,1,5.54,4.05,17.6,17.6,0,0,1,3.34,6,22.81,22.81,0,0,1,1.13,7.2,23,23,0,0,1-1.13,7.25,17.28,17.28,0,0,1-3.34,5.95,15.59,15.59,0,0,1-5.54,4,18.8,18.8,0,0,1-7.71,1.49H47.81ZM57.41,10V28.9h7a9.72,9.72,0,0,0,3.8-.7A7.51,7.51,0,0,0,71,26.26a8.27,8.27,0,0,0,1.66-3,12.5,12.5,0,0,0,.55-3.84A10.17,10.17,0,0,0,71,12.62C69.52,10.9,67.34,10,64.46,10Z"/><path class="cls-1" d="M132.24,38.16V.72h9.65l10.8,23.66L163.54.72h9.64V38.16h-9.55V20.54l-7.77,16.18h-6.29l-7.78-16.18V38.16Z"/><path class="cls-1" d="M193,19.44a18.16,18.16,0,0,1,1.58-7.56,20,20,0,0,1,4.3-6.17,20.26,20.26,0,0,1,6.33-4.17,19.92,19.92,0,0,1,15.36,0,20.31,20.31,0,0,1,6.34,4.17,19.55,19.55,0,0,1,4.27,6.17,18.47,18.47,0,0,1,1.56,7.56A18.47,18.47,0,0,1,231.19,27a19.55,19.55,0,0,1-4.27,6.17,20.31,20.31,0,0,1-6.34,4.17,19.92,19.92,0,0,1-15.36,0,20.26,20.26,0,0,1-6.33-4.17,20,20,0,0,1-4.3-6.17A18.16,18.16,0,0,1,193,19.44Zm9.69,0a10.2,10.2,0,0,0,.79,4,9.87,9.87,0,0,0,2.19,3.24,10.22,10.22,0,0,0,3.24,2.16,9.9,9.9,0,0,0,4,.8,10.07,10.07,0,0,0,4-.8,9.87,9.87,0,0,0,3.21-2.16,10.35,10.35,0,0,0,2.16-11.2,10.11,10.11,0,0,0-2.16-3.24,9.87,9.87,0,0,0-3.21-2.16,10.07,10.07,0,0,0-4-.8,9.9,9.9,0,0,0-4,.8,10.22,10.22,0,0,0-3.24,2.16,9.87,9.87,0,0,0-2.19,3.24A10.2,10.2,0,0,0,202.7,19.44Z"/><path class="cls-1" d="M252.57.72H270a18.75,18.75,0,0,1,7.7,1.49,15.56,15.56,0,0,1,5.55,4.05,17.58,17.58,0,0,1,3.33,6,22.52,22.52,0,0,1,1.13,7.2,22.7,22.7,0,0,1-1.13,7.25,17.26,17.26,0,0,1-3.33,5.95,15.63,15.63,0,0,1-5.55,4,18.75,18.75,0,0,1-7.7,1.49H252.57Zm9.6,9.31V28.9h7.06a9.67,9.67,0,0,0,3.79-.7,7.54,7.54,0,0,0,2.74-1.94,8.4,8.4,0,0,0,1.65-3,12.5,12.5,0,0,0,.55-3.84,10.16,10.16,0,0,0-2.2-6.82c-1.47-1.72-3.65-2.59-6.53-2.59Z"/><path class="cls-1" d="M307.68.72h28.75V10H317.28v5.38H333V24.1H317.28v4.8h19.15v9.26H307.68Z"/><path class="cls-1" d="M356.92.72h9.56V28.9h17.95v9.26H356.92Z"/><path class="cls-1" d="M403.77.72h9.55V28.9h18v9.26H403.77Z"/><path class="cls-1" d="M460.22.72V38.16h-9.6V.72Z"/><path class="cls-1" d="M481.82,38.16V.72H490l16.7,20.93V.72h9.56V38.16h-8.12l-16.7-20.88V38.16Z"/><path class="cls-1" d="M554.88,16.32h18V38.16h-7.53v-3.5a8.45,8.45,0,0,1-4,3.16,14.25,14.25,0,0,1-5.47,1.06,19.26,19.26,0,0,1-7.68-1.54,20.4,20.4,0,0,1-6.31-4.17,20,20,0,0,1-4.3-6.17,18.32,18.32,0,0,1-1.58-7.56,18.32,18.32,0,0,1,1.58-7.56,20,20,0,0,1,4.3-6.17,20.4,20.4,0,0,1,6.31-4.17,19.92,19.92,0,0,1,16.66.6,20.32,20.32,0,0,1,6.86,5.68L564,13.1a9.94,9.94,0,0,0-3.48-2.8,10.37,10.37,0,0,0-8.52-.24,9.93,9.93,0,0,0-5.4,5.4,10.3,10.3,0,0,0,0,8,9.93,9.93,0,0,0,5.4,5.4,10.07,10.07,0,0,0,4,.8,9.28,9.28,0,0,0,4.61-1.16A9.89,9.89,0,0,0,564,25.34V24.29h-9.07Z"/></g></g></svg>