<svg xmlns="http://www.w3.org/2000/svg" viewBox="0 0 661.89 126.01"><defs><style>.cls-1{fill:#991f1f;}</style></defs><g id="Layer_2" data-name="Layer 2"><g id="Layer_1-2" data-name="Layer 1"><path class="cls-1" d="M0,.94H12.54V17.8L27.71.94H43.88l-19.31,21,20.32,27.9H29.34L15.86,31.41l-3.32,3.7V49.84H0Z"/><path class="cls-1" d="M62.57,49.84V.94H73.22L95,28.27V.94h12.47v48.9H96.92L75.1,22.57V49.84Z"/><path class="cls-1" d="M127.14,25.39a24,24,0,0,1,2.06-9.87,25.81,25.81,0,0,1,5.62-8.06A26.39,26.39,0,0,1,143.09,2a26,26,0,0,1,20.06,0,26.43,26.43,0,0,1,8.28,5.45A25.54,25.54,0,0,1,177,15.52a24.25,24.25,0,0,1,2,9.87,24.25,24.25,0,0,1-2,9.87,25.54,25.54,0,0,1-5.58,8.06,26.43,26.43,0,0,1-8.28,5.45,26,26,0,0,1-20.06,0,26.39,26.39,0,0,1-8.27-5.45,25.81,25.81,0,0,1-5.62-8.06A24,24,0,0,1,127.14,25.39Zm12.66,0a13.19,13.19,0,0,0,1,5.2,13,13,0,0,0,2.86,4.24,13.62,13.62,0,0,0,4.23,2.82,13,13,0,0,0,5.17,1,13.17,13.17,0,0,0,5.24-1,13.49,13.49,0,0,0,4.2-2.82,13.33,13.33,0,0,0,2.82-4.24,13.64,13.64,0,0,0,0-10.4A13.33,13.33,0,0,0,162.53,16a13.49,13.49,0,0,0-4.2-2.82,13.17,13.17,0,0,0-5.24-1,13,13,0,0,0-5.17,1A13.62,13.62,0,0,0,143.69,16a13,13,0,0,0-2.86,4.24A13.19,13.19,0,0,0,139.8,25.39Z"/><path class="cls-1" d="M208.57,49.84,194.84.94H208.2l7.89,29.15L225.25.94h11.16L245.56,30,253.46.94h13.41l-13.72,48.9h-13l-9.34-28.4-9.28,28.4Z"/><path class="cls-1" d="M317,49.84V.94h12.6l14.1,30.91L357.9.94h12.6v48.9H358v-23L347.87,48h-8.21L329.5,26.83v23Z"/><path class="cls-1" d="M390.12,25.39a23.79,23.79,0,0,1,2.07-9.87,26,26,0,0,1,5.61-8.06A26.43,26.43,0,0,1,406.08,2a26,26,0,0,1,20.06,0,26.55,26.55,0,0,1,8.28,5.45A25.35,25.35,0,0,1,440,15.52a24.09,24.09,0,0,1,2,9.87,24.09,24.09,0,0,1-2,9.87,25.35,25.35,0,0,1-5.57,8.06,26.55,26.55,0,0,1-8.28,5.45,26,26,0,0,1-20.06,0,26.43,26.43,0,0,1-8.28-5.45,26,26,0,0,1-5.61-8.06A23.79,23.79,0,0,1,390.12,25.39Zm12.67,0a13.22,13.22,0,0,0,3.88,9.44,13.79,13.79,0,0,0,4.24,2.82,12.93,12.93,0,0,0,5.17,1,13.12,13.12,0,0,0,5.23-1,13.31,13.31,0,0,0,0-24.52,13.12,13.12,0,0,0-5.23-1,12.93,12.93,0,0,0-5.17,1A13.79,13.79,0,0,0,406.67,16a13.22,13.22,0,0,0-3.88,9.44Z"/><path class="cls-1" d="M485.54.94a21.48,21.48,0,0,1,8.15,1.41,15.37,15.37,0,0,1,9.06,9.56,21.49,21.49,0,0,1,1.09,6.9,20.94,20.94,0,0,1-.59,5,17.54,17.54,0,0,1-1.79,4.55,16.1,16.1,0,0,1-3,3.82A15.57,15.57,0,0,1,494.19,35l10.6,14.8h-15l-9.28-13.1h-6.39v13.1H461.65V.94ZM474.13,12.35v13h10.72a8.68,8.68,0,0,0,3.2-.53,6.1,6.1,0,0,0,2.13-1.41,5.48,5.48,0,0,0,1.19-2.07,8.14,8.14,0,0,0,.38-2.45,7.11,7.11,0,0,0-1.57-4.7c-1.05-1.25-2.82-1.88-5.33-1.88Z"/><path class="cls-1" d="M524.09.94h37.56V13.1h-25v7h20.56V31.47H536.63v6.27h25v12.1H524.09Z"/><path class="cls-1" d="M225.12,76.17l19.75,48.9H231.2l-2.69-7.15H209.26l-2.69,7.15H192.9l19.81-48.9Zm-6.2,16-5.4,14.36h10.72Z"/><path class="cls-1" d="M263.05,76.17h24.32a21.64,21.64,0,0,1,6.93,1A13.55,13.55,0,0,1,299.25,80a11.86,11.86,0,0,1,3,4.3,14.13,14.13,0,0,1,1,5.36,11.49,11.49,0,0,1-1.6,6.27,11.72,11.72,0,0,1-4.36,4,13.56,13.56,0,0,1,6,4.23,11.18,11.18,0,0,1,2.19,7.12,13.92,13.92,0,0,1-1.1,5.55,12.36,12.36,0,0,1-3.16,4.38,14.27,14.27,0,0,1-5,2.86,20.49,20.49,0,0,1-6.64,1H263.05Zm12.54,11.41v7.77h10.34a4.93,4.93,0,0,0,3.61-1.06,3.87,3.87,0,0,0,1-2.82,4,4,0,0,0-1-2.82,3.81,3.81,0,0,0-3-1.07Zm0,17.55v8.59h12.54a4.53,4.53,0,0,0,3.6-1.22,4.75,4.75,0,0,0,1-3.17,4.41,4.41,0,0,0-1-3,4.67,4.67,0,0,0-3.6-1.16Z"/><path class="cls-1" d="M322.92,100.62A23.79,23.79,0,0,1,325,90.75a26,26,0,0,1,5.61-8.06,26.5,26.5,0,0,1,8.27-5.45,26.05,26.05,0,0,1,20.07,0,26.5,26.5,0,0,1,8.27,5.45,25.54,25.54,0,0,1,5.58,8.06,24.9,24.9,0,0,1,0,19.74,25.54,25.54,0,0,1-5.58,8.06,26.5,26.5,0,0,1-8.27,5.45,26.05,26.05,0,0,1-20.07,0,26.5,26.5,0,0,1-8.27-5.45,26,26,0,0,1-5.61-8.06A23.79,23.79,0,0,1,322.92,100.62Zm12.66,0a13.19,13.19,0,0,0,1,5.2,12.93,12.93,0,0,0,2.85,4.23,13.48,13.48,0,0,0,4.23,2.83,13,13,0,0,0,5.17,1,13.35,13.35,0,0,0,12.26-18.49,13,13,0,0,0-7-7.06,13.17,13.17,0,0,0-5.24-1,13,13,0,0,0-5.17,1,13.62,13.62,0,0,0-4.23,2.82,13.29,13.29,0,0,0-3.89,9.44Z"/><path class="cls-1" d="M438.71,76.17v27.52a25.68,25.68,0,0,1-1.47,8.78,19.68,19.68,0,0,1-11.38,11.82,28.13,28.13,0,0,1-19.37,0,19.43,19.43,0,0,1-11.29-11.82,26.17,26.17,0,0,1-1.44-8.78V76.17H406.3v26.77c0,3.55.83,6.27,2.51,8.15s4.13,2.82,7.39,2.82,5.8-.94,7.5-2.82,2.53-4.6,2.53-8.15V76.17Z"/><path class="cls-1" d="M457,76.17h43V88.33H484.73v36.74H472.19V88.33H457Z"/><path class="cls-1" d="M548.92,125.07V76.17h12.6l14.11,30.91,14.16-30.91h12.6v48.9H589.92v-23l-10.16,21.13h-8.21l-10.16-21.13v23Z"/><path class="cls-1" d="M624.34,76.17h37.55V88.33h-25v7h20.57V106.7H636.87V113h25v12.1H624.34Z"/></g></g></svg>