<svg xmlns="http://www.w3.org/2000/svg" viewBox="0 0 872.25 25.8"><defs><style>.cls-1{fill:#991f1f;}</style></defs><g id="Layer_2" data-name="Layer 2"><g id="Layer_1-2" data-name="Layer 1"><path class="cls-1" d="M27.09,25.35H18.92l-1.29-3.42H9.46L8.17,25.35H0L10.09.45h7ZM20,23.85h4.91L16,2H11.1L2.23,23.85h4.9l1.29-3.42H18.67ZM17.19,16.5H9.9l3.67-9.76ZM12.07,15h3l-1.47-4Z"/><path class="cls-1" d="M67.62,25.35H48.93V.45H56.4V18.06H67.62Zm-17.19-1.5H66.12V19.56H54.9V2H50.43Z"/><path class="cls-1" d="M115.23,25.35h-7.32L104,13.42l-3.9,11.93H92.76l-7-24.9h8l3.26,12,3.77-12h6.44l3.78,12,3.26-12h8ZM109,23.85h5.09L120.24,2h-4.85l-4.3,15.84L106.1,2h-4.24l-5,15.87L92.58,2H87.75l6.15,21.9H99L104,8.6Z"/><path class="cls-1" d="M166.41,25.35h-8.17L157,21.93h-8.17l-1.29,3.42h-8.17L149.41.45h7Zm-7.13-1.5h4.91L155.35,2h-4.93l-8.87,21.9h4.9l1.29-3.42H158Zm-2.77-7.35h-7.29l3.67-9.76ZM151.39,15h3l-1.47-4Z"/><path class="cls-1" d="M197.88,25.35h-7.47V16.23L180.57.45h8.82l4.74,7.8L198.9.45h8.86l-9.88,15.78Zm-6-1.5h4.47v-8L205.05,2h-5.31l-5.61,9.18L188.55,2h-5.28l8.64,13.85Z"/><path class="cls-1" d="M237.75,25.8a15.77,15.77,0,0,1-4.1-.51,10.82,10.82,0,0,1-3.39-1.5,7.54,7.54,0,0,1-2.33-2.51,6.88,6.88,0,0,1-.86-3.43v-1h7.35v.9a.74.74,0,0,0,.12.3,1.76,1.76,0,0,0,.5.47,3.77,3.77,0,0,0,1,.43,6,6,0,0,0,1.57.18,3.57,3.57,0,0,0,1.89-.32c.27-.2.33-.33.33-.37,0-.21-.18-.43-.55-.64a18.06,18.06,0,0,0-2.93-1.2c-.94-.3-2-.67-3-1.08a14.24,14.24,0,0,1-2.93-1.6,8.4,8.4,0,0,1-2.28-2.4A6.31,6.31,0,0,1,227.25,8,7.37,7.37,0,0,1,228,4.66a7.43,7.43,0,0,1,2.1-2.54A9.8,9.8,0,0,1,233.24.54a14.6,14.6,0,0,1,7.92,0,9.72,9.72,0,0,1,3.28,1.64,8,8,0,0,1,2.21,2.63,7.3,7.3,0,0,1,.82,3.48V9.39h-7.35v-1A1.27,1.27,0,0,0,240,7.9a1.57,1.57,0,0,0-.48-.56,2.76,2.76,0,0,0-.89-.46,4.08,4.08,0,0,0-1.34-.19,3.08,3.08,0,0,0-1.74.34c-.24.18-.36.35-.36.5s.27.39.49.51a20.86,20.86,0,0,0,2.88,1.15q1.22.42,2.76,1.05a14.69,14.69,0,0,1,3,1.64,9.71,9.71,0,0,1,2.44,2.51,6.53,6.53,0,0,1,1,3.7,6.78,6.78,0,0,1-3,5.8,10,10,0,0,1-3.18,1.43A15,15,0,0,1,237.75,25.8Zm-9.16-7.47a5.27,5.27,0,0,0,.65,2.21,6.2,6.2,0,0,0,1.87,2A9.27,9.27,0,0,0,234,23.84a15.24,15.24,0,0,0,7.23,0A8.75,8.75,0,0,0,244,22.67a5.31,5.31,0,0,0,2.33-4.58,5,5,0,0,0-.79-2.87,7.8,7.8,0,0,0-2.06-2.11,12.93,12.93,0,0,0-2.71-1.48c-1-.4-1.91-.75-2.7-1A23.07,23.07,0,0,1,235,9.36a2.06,2.06,0,0,1-1.28-1.83,2.11,2.11,0,0,1,1-1.7,4.39,4.39,0,0,1,2.64-.64,5.85,5.85,0,0,1,1.81.26,4.28,4.28,0,0,1,1.36.72,3.23,3.23,0,0,1,.88,1,3.19,3.19,0,0,1,.24.67H246a5.64,5.64,0,0,0-.64-2.37,6.48,6.48,0,0,0-1.8-2.14A8.58,8.58,0,0,0,240.73,2a13.09,13.09,0,0,0-7,0A8,8,0,0,0,231,3.31a5.91,5.91,0,0,0-1.68,2,5.81,5.81,0,0,0-.6,2.68,4.92,4.92,0,0,0,.71,2.69,7.12,7.12,0,0,0,1.89,2A13.19,13.19,0,0,0,234,14.11c1,.4,1.95.75,2.87,1a19.27,19.27,0,0,1,3.21,1.33,2.22,2.22,0,0,1,1.3,1.94A2,2,0,0,1,240.4,20a4.71,4.71,0,0,1-2.77.61,7.23,7.23,0,0,1-2-.24,5.2,5.2,0,0,1-1.44-.62,3,3,0,0,1-.94-.91,2.4,2.4,0,0,1-.25-.51Z"/><path class="cls-1" d="M324.91,25.35h-9.3L309.48,17l-.78.87v7.51h-7.5V.45h7.5V7.31L314.88.45h9.78l-10,10.86Zm-8.54-1.5H322l-9.22-12.66L321.24,2h-5.69l-8.35,9.27V2h-4.5v21.9h4.5V17.26l2.4-2.67Z"/><path class="cls-1" d="M365.61,25.35H346.14V.45h19.47V7.77h-12V9.63h9.84v6.93h-9.84v1.5h12Zm-18-1.5h16.47V19.56h-12v-4.5H362V11.13h-9.84V6.27h12V2H347.64Z"/><path class="cls-1" d="M408.39,25.35H388.92V.45h19.47V7.77h-12V9.63h9.84v6.93h-9.84v1.5h12Zm-18-1.5h16.47V19.56h-12v-4.5h9.84V11.13h-9.84V6.27h12V2H390.42Z"/><path class="cls-1" d="M439.2,25.35h-7.5V.45h11.07a11.24,11.24,0,0,1,4.36.79,8.78,8.78,0,0,1,5,5.3,11.27,11.27,0,0,1,.59,3.63,11.83,11.83,0,0,1-.59,3.75,8.68,8.68,0,0,1-5,5.32,11.05,11.05,0,0,1-4.36.8H439.2Zm-6-1.5h4.5V18.54h5.07a9.58,9.58,0,0,0,3.77-.68,7.48,7.48,0,0,0,2.61-1.79,7.45,7.45,0,0,0,1.54-2.63,10.32,10.32,0,0,0,.51-3.27A9.76,9.76,0,0,0,450.69,7a7.6,7.6,0,0,0-1.54-2.6,7.5,7.5,0,0,0-2.61-1.8A9.77,9.77,0,0,0,442.77,2H433.2Zm9.24-9.27H437.7V5.91h4.74a4.79,4.79,0,0,1,1.89.35,3.54,3.54,0,0,1,1.35,1,3.73,3.73,0,0,1,.75,1.42,5.67,5.67,0,0,1,.21,1.54,4.94,4.94,0,0,1-.93,3.05A3.87,3.87,0,0,1,442.44,14.58Zm-3.24-1.5h3.24a2.46,2.46,0,0,0,2.07-.74,3.38,3.38,0,0,0,.63-2.14A4.22,4.22,0,0,0,445,9.07a2.22,2.22,0,0,0-.45-.86,2.25,2.25,0,0,0-.81-.58,3.25,3.25,0,0,0-1.29-.22H439.2Z"/><path class="cls-1" d="M513.24,25.35h-7.5V.45h7.5Zm-6-1.5h4.5V2h-4.5Z"/><path class="cls-1" d="M564.33,25.35h-7.47V16.88l-3.64,7.57h-4.87l-3.64-7.57v8.47h-7.47V.45h7.26l6.27,13.74L557.07.45h7.26Zm-6-1.5h4.47V2H558l-7.26,15.84L543.54,2h-4.8v21.9h4.47V10.3L549.29,23h3l6.08-12.65Z"/><path class="cls-1" d="M595.83,25.35h-7.5V.45H599.4a11.27,11.27,0,0,1,4.36.79,8.91,8.91,0,0,1,3.12,2.17,8.69,8.69,0,0,1,1.85,3.13,11,11,0,0,1,.6,3.63,11.83,11.83,0,0,1-.59,3.75,8.68,8.68,0,0,1-5,5.32,11.09,11.09,0,0,1-4.36.8h-3.57Zm-6-1.5h4.5V18.54h5.07a9.58,9.58,0,0,0,3.77-.68,7.48,7.48,0,0,0,2.61-1.79,7.29,7.29,0,0,0,1.53-2.63,10,10,0,0,0,.52-3.27A9.76,9.76,0,0,0,607.32,7a7.6,7.6,0,0,0-1.54-2.6,7.5,7.5,0,0,0-2.61-1.8A9.77,9.77,0,0,0,599.4,2h-9.57Zm9.24-9.27h-4.74V5.91h4.74a4.79,4.79,0,0,1,1.89.35,3.54,3.54,0,0,1,1.35,1,3.73,3.73,0,0,1,.75,1.42,5.67,5.67,0,0,1,.21,1.54,4.94,4.94,0,0,1-.93,3.05A3.87,3.87,0,0,1,599.07,14.58Zm-3.24-1.5h3.24a2.47,2.47,0,0,0,2.07-.74,3.44,3.44,0,0,0,.63-2.14,4.22,4.22,0,0,0-.15-1.13,2.22,2.22,0,0,0-.45-.86,2.25,2.25,0,0,0-.81-.58,3.25,3.25,0,0,0-1.29-.22h-3.24Z"/><path class="cls-1" d="M654.89,25.35h-9l-4.44-6.27h-1.92v6.27H632V.45h12.18a11.11,11.11,0,0,1,4.18.73,8,8,0,0,1,4.76,5,11,11,0,0,1,.57,3.54,10.65,10.65,0,0,1-.31,2.58,9,9,0,0,1-.93,2.36,8.6,8.6,0,0,1-1.57,2,7.81,7.81,0,0,1-1.45,1.08Zm-8.24-1.5H652l-4.75-6.63.82-.38a6.73,6.73,0,0,0,1.84-1.23A6.9,6.9,0,0,0,651.19,14a8,8,0,0,0,.78-2,9.7,9.7,0,0,0,.26-2.22,9.39,9.39,0,0,0-.49-3.06,6.55,6.55,0,0,0-3.9-4.12A9.65,9.65,0,0,0,644.22,2H633.54v21.9H638V17.58h4.2Zm-2.76-10.2H638V5.91h5.88A3.83,3.83,0,0,1,647,7.08a4.11,4.11,0,0,1,.93,2.73,4.5,4.5,0,0,1-.22,1.4,3.35,3.35,0,0,1-.73,1.27,3.61,3.61,0,0,1-1.29.86A5,5,0,0,1,643.89,13.65Zm-4.38-1.5h4.38a3.44,3.44,0,0,0,1.25-.2,2.08,2.08,0,0,0,.75-.49,1.77,1.77,0,0,0,.4-.71,3,3,0,0,0,.15-.94A2.62,2.62,0,0,0,645.86,8a2.48,2.48,0,0,0-2-.63h-4.38Z"/><path class="cls-1" d="M689,25.8a12.91,12.91,0,0,1-5.08-1,13.25,13.25,0,0,1-7-6.85,12.19,12.19,0,0,1-1.05-5,12.19,12.19,0,0,1,1.05-5A13.29,13.29,0,0,1,694.09,1a13.69,13.69,0,0,1,4.19,2.76,13.14,13.14,0,0,1,2.83,4.09,12.34,12.34,0,0,1,1,5,12.34,12.34,0,0,1-1,5A13.14,13.14,0,0,1,698.28,22a13.69,13.69,0,0,1-4.19,2.76A13,13,0,0,1,689,25.8Zm0-24.3a11.36,11.36,0,0,0-4.49.9,11.93,11.93,0,0,0-3.73,2.46,11.81,11.81,0,0,0-2.53,3.62,11.08,11.08,0,0,0,0,8.84,11.81,11.81,0,0,0,2.53,3.62,11.93,11.93,0,0,0,3.73,2.46,11.77,11.77,0,0,0,9,0,12,12,0,0,0,3.73-2.46,11.36,11.36,0,0,0,2.51-3.62,11.19,11.19,0,0,0,0-8.84,11.36,11.36,0,0,0-2.51-3.62A12,12,0,0,0,693.5,2.4,11.47,11.47,0,0,0,689,1.5ZM689,20a7,7,0,0,1-2.77-.56A7.37,7.37,0,0,1,684,18a7.05,7.05,0,0,1-2.08-5A7.05,7.05,0,0,1,684,7.85a7.59,7.59,0,0,1,2.26-1.51,7.36,7.36,0,0,1,5.57,0A7.25,7.25,0,0,1,694,7.85a6.94,6.94,0,0,1,1.51,2.27,7.18,7.18,0,0,1,0,5.56A6.94,6.94,0,0,1,694,18,7.11,7.11,0,0,1,689,20Zm0-12.72a5.65,5.65,0,0,0-2.18.43,5.85,5.85,0,0,0-1.8,1.2,5.64,5.64,0,0,0-1.2,1.78,5.75,5.75,0,0,0-.43,2.2,5.83,5.83,0,0,0,.43,2.2,5.64,5.64,0,0,0,1.2,1.78,6.16,6.16,0,0,0,1.8,1.2,5.85,5.85,0,0,0,4.39,0,5.77,5.77,0,0,0,1.77-1.2,5.51,5.51,0,0,0,1.19-1.78,5.65,5.65,0,0,0,.44-2.2,5.58,5.58,0,0,0-.44-2.2A5.51,5.51,0,0,0,693,8.92a5.6,5.6,0,0,0-1.77-1.2A5.73,5.73,0,0,0,689,7.29Z"/><path class="cls-1" d="M738.38,25.35h-7l-10-24.9h8.17l5.36,14.33L740.3.45h8.17Zm-5.94-1.5h4.93L746.25,2h-4.91l-6.43,17.11L728.51,2H723.6Z"/><path class="cls-1" d="M777.81,25.35h-7.5V.45h7.5Zm-6-1.5h4.5V2h-4.5Z"/><path class="cls-1" d="M824.82,25.35h-6.18l-9.33-11.66V25.35h-7.5V.45H808l9.33,11.69V.45h7.47Zm-5.46-1.5h4V2h-4.47V16.42L807.3,2h-4v21.9h4.5V9.41Z"/><path class="cls-1" d="M860.88,25.8a12.87,12.87,0,0,1-5.1-1,13.3,13.3,0,0,1-7-6.85,12.19,12.19,0,0,1-1-5,12.19,12.19,0,0,1,1-5,13.3,13.3,0,0,1,7-6.85,13.21,13.21,0,0,1,11.05.4,13.41,13.41,0,0,1,4.54,3.76l.49.63L865.73,10l-.43-.55a5.57,5.57,0,0,0-1.92-1.54,5.79,5.79,0,0,0-4.7-.13,5.55,5.55,0,0,0-1.79,1.19,5.4,5.4,0,0,0-1.19,1.78,5.57,5.57,0,0,0-.43,2.2,5.64,5.64,0,0,0,.43,2.2,5.4,5.4,0,0,0,1.19,1.78,5.6,5.6,0,0,0,6.5,1,5.21,5.21,0,0,0,1.48-1.2h-5.4V10.2h12.78V25.35H866V24.27a6.45,6.45,0,0,1-1.46.81A9.68,9.68,0,0,1,860.88,25.8Zm0-24.3a11.39,11.39,0,0,0-4.51.9,12,12,0,0,0-3.71,2.46,11.81,11.81,0,0,0-2.53,3.62,11.08,11.08,0,0,0,0,8.84,11.81,11.81,0,0,0,2.53,3.62,12,12,0,0,0,3.71,2.46,11.39,11.39,0,0,0,4.51.9,8.26,8.26,0,0,0,3.13-.6,4.56,4.56,0,0,0,2.15-1.7l1.38-2.09v3.94h3.21V11.7H861v3.48h5.67v1.64l-.13.19a6.84,6.84,0,0,1-8.41,2.45,6.92,6.92,0,0,1-3.78-3.78,7.3,7.3,0,0,1,0-5.56,6.92,6.92,0,0,1,3.78-3.78,7.31,7.31,0,0,1,5.94.17A7,7,0,0,1,866,8l3.65-2.47a12.06,12.06,0,0,0-3.53-2.73A11.3,11.3,0,0,0,860.88,1.5Z"/></g></g></svg>