<svg xmlns="http://www.w3.org/2000/svg" viewBox="0 0 40 40"><defs><style>.cls-1{fill:#f1f1f1;}</style></defs><g id="Layer_2" data-name="Layer 2"><g id="Layer_1-2" data-name="Layer 1"><circle cx="20" cy="20" r="20"/><path class="cls-1" d="M7.77,12.22c2.68,0,5.36,0,8,.11a5.61,5.61,0,0,1,2.11.56c2.37,1.09,2.5,5.11.37,6.2-.06,0-.11.08-.2.14s.08.13.14.15c2.13.94,2.46,3.59,1.63,5.36a4.17,4.17,0,0,1-3.74,2.56c-2.68.12-5.36.08-8,.1a1.25,1.25,0,0,1-.31-.07Zm3.16,12.4h4.7a1,1,0,0,0,.5-.16,2.27,2.27,0,0,0,.86-2.4,1.81,1.81,0,0,0-1.78-1.24c-1.12,0-2.24,0-3.36,0h-.92Zm0-6.43H15a2,2,0,0,0,.63-.14c.9-.3,1.14-.73,1.06-1.85,0-.65-.44-1.08-1.28-1.14-1.28-.1-2.56-.09-3.84-.12h-.63Z"/><path class="cls-1" d="M32.23,22.65H24.1a2.56,2.56,0,0,0,1.72,2.57,2.66,2.66,0,0,0,3.11-.9.57.57,0,0,1,.42-.24c.87,0,1.74,0,2.74,0a8.09,8.09,0,0,1-.37,1,5,5,0,0,1-3.95,2.62,6.36,6.36,0,0,1-4.55-1,4.78,4.78,0,0,1-2-3.6,8.86,8.86,0,0,1,.24-3.55,5.06,5.06,0,0,1,4.49-3.62A5.82,5.82,0,0,1,30.22,17a5.12,5.12,0,0,1,1.91,3.76,3.7,3.7,0,0,0,.1.58Zm-3.15-2.06a2.22,2.22,0,0,0-2.41-2.22,2.3,2.3,0,0,0-2.46,2.22Z"/><path class="cls-1" d="M23.22,14.66V13.15H29.7v1.51Z"/></g></g></svg>