<svg xmlns="http://www.w3.org/2000/svg" viewBox="0 0 769.01 173.77"><defs><style>.cls-1{fill:#991f1f;}</style></defs><g id="Layer_2" data-name="Layer 2"><g id="Layer_1-2" data-name="Layer 1"><path class="cls-1" d="M4.14,1.3H21.33V52h32.3V68.66H4.14Z"/><path class="cls-1" d="M79.8,1.3h51.74V18.05H97.08v9.67H125.4V43.36H97.08V52h34.46V68.66H79.8Z"/><path class="cls-1" d="M155.63,1.3h59.25V18.05h-21V68.66H176.62V18.05h-21Z"/><path class="cls-1" d="M255.13,48.45v.43a3.79,3.79,0,0,0,.69,2,6.83,6.83,0,0,0,2.07,2,12.72,12.72,0,0,0,3.54,1.51,18.76,18.76,0,0,0,5.1.61q4.83,0,6.69-1.34a3.64,3.64,0,0,0,1.86-2.81c0-1.44-.9-2.68-2.68-3.71a52.28,52.28,0,0,0-8.81-3.63c-2.71-.86-5.51-1.89-8.42-3.07a38.62,38.62,0,0,1-8-4.36,22.76,22.76,0,0,1-6-6.3,16.12,16.12,0,0,1-2.38-8.9,18.92,18.92,0,0,1,1.95-8.68,19.16,19.16,0,0,1,5.44-6.56,25.38,25.38,0,0,1,8.33-4.19A36.45,36.45,0,0,1,265.14,0a37.9,37.9,0,0,1,10.93,1.51,26.34,26.34,0,0,1,8.72,4.36,21,21,0,0,1,5.79,6.87,19.09,19.09,0,0,1,2.12,9v.95H275.85v-.6a5.56,5.56,0,0,0-.64-2.5,7,7,0,0,0-1.95-2.34A10.3,10.3,0,0,0,270,15.59a14.34,14.34,0,0,0-4.53-.65q-4.41,0-6.3,1.43a4,4,0,0,0-1.9,3.15c0,1.32.84,2.45,2.54,3.37a62.73,62.73,0,0,0,8.6,3.45q3.45,1.21,7.86,3a40.33,40.33,0,0,1,8.24,4.49A25.46,25.46,0,0,1,291,40.46a16.58,16.58,0,0,1,2.64,9.46A17.45,17.45,0,0,1,286,64.86a26.44,26.44,0,0,1-8.46,3.8A41.21,41.21,0,0,1,266.87,70a44,44,0,0,1-11.27-1.38,28.93,28.93,0,0,1-9.07-4,19.56,19.56,0,0,1-6-6.52,17.54,17.54,0,0,1-2.2-8.81v-.78Z"/><path class="cls-1" d="M396,29.37h32.47V68.66H414.9v-6.3a15.2,15.2,0,0,1-7.17,5.7,26,26,0,0,1-9.84,1.9,34.71,34.71,0,0,1-13.82-2.77,36.69,36.69,0,0,1-11.36-7.51A35.91,35.91,0,0,1,365,48.58,32.8,32.8,0,0,1,362.13,35,32.8,32.8,0,0,1,365,21.38a35.79,35.79,0,0,1,7.73-11.1,36.89,36.89,0,0,1,11.36-7.52,35.93,35.93,0,0,1,30,1.08,36.69,36.69,0,0,1,12.35,10.24l-14.08,9.5a17.88,17.88,0,0,0-6.26-5A18.4,18.4,0,0,0,381,42.15a18.24,18.24,0,0,0,16.89,11.14,16.75,16.75,0,0,0,8.29-2.07,17.94,17.94,0,0,0,6.13-5.62V43.7H396Z"/><path class="cls-1" d="M457.05,1.3h51.73V18.05H474.32v9.67h28.33V43.36H474.32V52h34.46V68.66H457.05Z"/><path class="cls-1" d="M532.88,1.3h59.25V18.05h-21V68.66H553.87V18.05h-21Z"/><path class="cls-1" d="M676.85,1.3V68.66H659.58V1.3Z"/><path class="cls-1" d="M707.08,68.66V1.3h14.68L751.82,39V1.3H769V68.66h-14.6L724.35,31.09V68.66Z"/><path class="cls-1" d="M0,104.94H59.25v16.75h-21V172.3H21V121.69H0Z"/><path class="cls-1" d="M82.13,138.62A32.8,32.8,0,0,1,85,125a35.79,35.79,0,0,1,7.73-11.1,37,37,0,0,1,11.4-7.52,36,36,0,0,1,27.64,0,36.72,36.72,0,0,1,11.4,7.52,35.18,35.18,0,0,1,7.69,11.1,34.32,34.32,0,0,1,0,27.2,35.3,35.3,0,0,1-7.69,11.1,36.52,36.52,0,0,1-11.4,7.51,35.86,35.86,0,0,1-27.64,0,36.75,36.75,0,0,1-11.4-7.51A35.91,35.91,0,0,1,85,152.22,32.8,32.8,0,0,1,82.13,138.62Zm17.45,0a18.24,18.24,0,0,0,1.42,7.17,18,18,0,0,0,3.93,5.83,18.88,18.88,0,0,0,5.83,3.88,18.69,18.69,0,0,0,14.34,0,18.31,18.31,0,0,0-7.21-35.19,17.94,17.94,0,0,0-7.13,1.42,18.9,18.9,0,0,0-5.83,3.89,18,18,0,0,0-3.93,5.83A18.24,18.24,0,0,0,99.58,138.62Z"/><path class="cls-1" d="M241.65,104.94v37.91a35.11,35.11,0,0,1-2,12.09A27,27,0,0,1,224,171.22a38.6,38.6,0,0,1-26.69,0,27,27,0,0,1-9.67-6.52,27.51,27.51,0,0,1-5.88-9.76,36.07,36.07,0,0,1-2-12.09V104.94H197v36.88q0,7.34,3.46,11.22t10.19,3.89q6.82,0,10.32-3.89t3.5-11.22V104.94Z"/><path class="cls-1" d="M335.45,154.25a35.81,35.81,0,0,1-5.53,7.86,35.2,35.2,0,0,1-7.43,6.09,37,37,0,0,1-9,4,35.23,35.23,0,0,1-10,1.43,34.78,34.78,0,0,1-13.77-2.77,36.52,36.52,0,0,1-11.4-7.51,35.74,35.74,0,0,1-7.73-11.1,33.87,33.87,0,0,1,0-27.2,35.63,35.63,0,0,1,7.73-11.1,36.72,36.72,0,0,1,11.4-7.52,35.65,35.65,0,0,1,23.75-1.33,38.54,38.54,0,0,1,8.94,3.93,34.26,34.26,0,0,1,7.42,6,36.73,36.73,0,0,1,5.53,7.77l-15.72,7.09a17.64,17.64,0,0,0-6.52-7,18,18,0,0,0-9.63-2.63,17.86,17.86,0,0,0-7.12,1.42,18.79,18.79,0,0,0-5.83,3.89,17.85,17.85,0,0,0-3.93,5.83,18.69,18.69,0,0,0,0,14.34,17.85,17.85,0,0,0,3.93,5.83,18.76,18.76,0,0,0,5.83,3.88,18.8,18.8,0,0,0,16.8-1.21,17.64,17.64,0,0,0,6.47-6.95Z"/><path class="cls-1" d="M423.28,104.94V172.3H406v-25H378.54v25H361.36V104.94h17.18v26.17H406V104.94Z"/><path class="cls-1" d="M451.35,162.89a10.56,10.56,0,0,1,.86-4.23,11,11,0,0,1,5.79-5.79,10.86,10.86,0,0,1,8.47,0,11.17,11.17,0,0,1,3.45,2.33,10.93,10.93,0,0,1,2.33,3.46,10.72,10.72,0,0,1,0,8.46,10.93,10.93,0,0,1-2.33,3.46,11.35,11.35,0,0,1-3.45,2.33,10.86,10.86,0,0,1-8.47,0,11.35,11.35,0,0,1-3.45-2.33,11.12,11.12,0,0,1-2.34-3.46A10.56,10.56,0,0,1,451.35,162.89Zm20.56-57.95L468,147.77H456.53l-3.88-42.83Z"/></g></g></svg>