<svg xmlns="http://www.w3.org/2000/svg" viewBox="0 0 492.09 38.88"><defs><style>.cls-1{fill:#991f1f;}</style></defs><g id="Layer_2" data-name="Layer 2"><g id="Layer_1-2" data-name="Layer 1"><path class="cls-1" d="M37.63,28.13a19.89,19.89,0,0,1-3.07,4.37,19.51,19.51,0,0,1-4.13,3.38,20.76,20.76,0,0,1-5,2.21,19.91,19.91,0,0,1-13.23-.75,20.38,20.38,0,0,1-6.33-4.17A20,20,0,0,1,1.58,27,18.32,18.32,0,0,1,0,19.44a18.32,18.32,0,0,1,1.58-7.56,20,20,0,0,1,4.3-6.17,20.38,20.38,0,0,1,6.33-4.17A19.85,19.85,0,0,1,25.42.79a21.26,21.26,0,0,1,5,2.19,18.54,18.54,0,0,1,4.13,3.36,20.07,20.07,0,0,1,3.07,4.32l-8.73,3.93a9.75,9.75,0,0,0-3.63-3.86,9.93,9.93,0,0,0-5.35-1.47,9.9,9.9,0,0,0-4,.8,10.22,10.22,0,0,0-3.24,2.16,9.84,9.84,0,0,0-2.18,3.24,10.42,10.42,0,0,0,0,8,9.84,9.84,0,0,0,2.18,3.24,10.22,10.22,0,0,0,3.24,2.16,9.9,9.9,0,0,0,4,.8,9.94,9.94,0,0,0,5.38-1.47,9.82,9.82,0,0,0,3.6-3.86Z"/><path class="cls-1" d="M55.05,19.44a18.17,18.17,0,0,1,1.59-7.56A20,20,0,0,1,67.27,1.54a19.92,19.92,0,0,1,15.36,0A20.31,20.31,0,0,1,89,5.71a19.55,19.55,0,0,1,4.27,6.17,18.47,18.47,0,0,1,1.56,7.56A18.47,18.47,0,0,1,93.24,27,19.55,19.55,0,0,1,89,33.17a20.31,20.31,0,0,1-6.34,4.17,19.92,19.92,0,0,1-15.36,0A20,20,0,0,1,56.64,27,18.17,18.17,0,0,1,55.05,19.44Zm9.7,0a10.2,10.2,0,0,0,.79,4,9.87,9.87,0,0,0,2.19,3.24,10.31,10.31,0,0,0,11.21,2.16,9.87,9.87,0,0,0,3.21-2.16,10.35,10.35,0,0,0,2.16-11.2,10.11,10.11,0,0,0-2.16-3.24,9.87,9.87,0,0,0-3.21-2.16,10.07,10.07,0,0,0-4-.8,10.17,10.17,0,0,0-9.39,6.2A10.2,10.2,0,0,0,64.75,19.44Z"/><path class="cls-1" d="M114.62,38.16V.72h8.16l16.71,20.93V.72H149V38.16h-8.11L124.22,17.28V38.16Z"/><path class="cls-1" d="M168.33.72h32.93V10H189.6V38.16H180V10H168.33Z"/><path class="cls-1" d="M236.59.72l15.12,37.44H241.25l-2.07-5.47H224.45l-2.07,5.47H211.92L227.09.72ZM231.84,13l-4.13,11h8.21Z"/><path class="cls-1" d="M303.89,28.13a20.28,20.28,0,0,1-3.08,4.37,19.45,19.45,0,0,1-4.12,3.38,20.84,20.84,0,0,1-5,2.21,19.88,19.88,0,0,1-13.22-.75,20.31,20.31,0,0,1-6.34-4.17A19.94,19.94,0,0,1,267.84,27a18.17,18.17,0,0,1-1.59-7.56,18.17,18.17,0,0,1,1.59-7.56,19.94,19.94,0,0,1,4.29-6.17,20.31,20.31,0,0,1,6.34-4.17,19.82,19.82,0,0,1,13.2-.75,21.33,21.33,0,0,1,5,2.19,18.77,18.77,0,0,1,4.13,3.36,20.42,20.42,0,0,1,3.07,4.32l-8.74,3.93a9.79,9.79,0,0,0-3.62-3.86,10.31,10.31,0,0,0-12.55,1.49,9.87,9.87,0,0,0-2.19,3.24,10.42,10.42,0,0,0,0,8,9.87,9.87,0,0,0,2.19,3.24,10.36,10.36,0,0,0,12.57,1.49,9.75,9.75,0,0,0,3.6-3.86Z"/><path class="cls-1" d="M320.78.72h32.93V10H342V38.16h-9.59V10H320.78Z"/><path class="cls-1" d="M400.8,38.16V.72h9.64l10.8,23.66L432.09.72h9.65V38.16h-9.55V20.54l-7.78,16.18h-6.29l-7.77-16.18V38.16Z"/><path class="cls-1" d="M463.34.72h28.75V10H472.94v5.38h15.74V24.1H472.94v4.8h19.15v9.26H463.34Z"/></g></g></svg>