<svg xmlns="http://www.w3.org/2000/svg" viewBox="0 0 550.5 122.14"><defs><style>.cls-1{fill:#991f1f;}</style></defs><g id="Layer_2" data-name="Layer 2"><g id="Layer_1-2" data-name="Layer 1"><path class="cls-1" d="M18.91,120.84,0,53.47H18.4L29.28,93.63,41.89,53.47H57.26L69.87,93.55,80.75,53.47H99.24L80.32,120.84H62.44L49.57,81.72,36.79,120.84Z"/><path class="cls-1" d="M124.2,53.47h51.73V70.23H141.47V79.9H169.8V95.53H141.47v8.64h34.46v16.67H124.2Z"/><path class="cls-1" d="M204.17,53.47h33.51a30,30,0,0,1,9.55,1.39,18.8,18.8,0,0,1,6.82,3.88,16.22,16.22,0,0,1,4.1,5.92A19.5,19.5,0,0,1,259.53,72a15.75,15.75,0,0,1-2.2,8.64,16.25,16.25,0,0,1-6,5.53,18.61,18.61,0,0,1,8.2,5.83,15.35,15.35,0,0,1,3,9.8,19,19,0,0,1-1.52,7.64,17.08,17.08,0,0,1-4.36,6,19.72,19.72,0,0,1-6.91,3.93,28.32,28.32,0,0,1-9.15,1.38H204.17Zm17.27,15.72V79.9H235.7q3.54,0,5-1.47a5.32,5.32,0,0,0,1.43-3.88,5.57,5.57,0,0,0-1.34-3.89,5.29,5.29,0,0,0-4.1-1.47Zm0,24.19v11.83h17.28q3.54,0,5-1.69a6.5,6.5,0,0,0,1.43-4.36A6.08,6.08,0,0,0,243.68,95q-1.43-1.59-5-1.59Z"/><path class="cls-1" d="M304,100.63v.43a3.79,3.79,0,0,0,.69,2,6.87,6.87,0,0,0,2.08,2,12.72,12.72,0,0,0,3.54,1.51,19.06,19.06,0,0,0,5.09.6q4.84,0,6.7-1.33a3.66,3.66,0,0,0,1.85-2.81q0-2.16-2.67-3.72a53.69,53.69,0,0,0-8.81-3.62q-4.07-1.3-8.43-3.07a38.54,38.54,0,0,1-8-4.36,23,23,0,0,1-6-6.3,16.22,16.22,0,0,1-2.37-8.9,19,19,0,0,1,1.94-8.68,19.28,19.28,0,0,1,5.44-6.56,25.34,25.34,0,0,1,8.34-4.19A36.35,36.35,0,0,1,314,52.18,38,38,0,0,1,325,53.69a26.54,26.54,0,0,1,8.72,4.36,21.06,21.06,0,0,1,5.78,6.87,18.94,18.94,0,0,1,2.12,9v1H324.74v-.6a5.65,5.65,0,0,0-.65-2.51,7,7,0,0,0-1.94-2.33,10.3,10.3,0,0,0-3.24-1.68,14.43,14.43,0,0,0-4.53-.65c-2.94,0-5,.48-6.31,1.42a4,4,0,0,0-1.9,3.16c0,1.32.85,2.45,2.55,3.37a62.47,62.47,0,0,0,8.59,3.45q3.45,1.22,7.86,3A40.15,40.15,0,0,1,333.42,86a25.61,25.61,0,0,1,6.48,6.65,16.63,16.63,0,0,1,2.63,9.46A17.47,17.47,0,0,1,334.89,117a26.4,26.4,0,0,1-8.47,3.8,41.63,41.63,0,0,1-10.66,1.3,44,44,0,0,1-11.27-1.39,29,29,0,0,1-9.07-4,19.59,19.59,0,0,1-6.05-6.52,17.54,17.54,0,0,1-2.2-8.81v-.78Z"/><path class="cls-1" d="M387.35,53.47v67.37H370.08V53.47Z"/><path class="cls-1" d="M413.44,53.47h59.24V70.23h-21v50.61H434.42V70.23h-21Z"/><path class="cls-1" d="M498.77,53.47H550.5V70.23H516V79.9h28.33V95.53H516v8.64H550.5v16.67H498.77Z"/><path class="cls-1" d="M275.93,25.2h-4.36L266.14,8.46h-.08L260.59,25.2h-4.32L248.68,1.3h4.53l5.33,17.42h.07L264.3,1.3H268l5.65,17.45h.08L279.13,1.3h4.43Z"/><path class="cls-1" d="M291.19,17.93c.47,2.7,2.77,4.28,6.12,4.28A8.6,8.6,0,0,0,303.4,20h.18v3.78a10.66,10.66,0,0,1-6.41,1.77c-5.9,0-9.86-3.53-9.86-8.79A8.43,8.43,0,0,1,296.09,8c5.22,0,8.53,3.16,8.53,8.09v1.88Zm0-2.85h9.9c-.32-2.3-2.27-3.78-4.89-3.78A5,5,0,0,0,291.19,15.08Z"/><path class="cls-1" d="M311.64,0h3.82V25.2h-3.82Z"/><path class="cls-1" d="M337.05,9.43v4.14h-.18A5.77,5.77,0,0,0,332,11.38c-3.5,0-5.66,2.16-5.66,5.39s2.16,5.37,5.66,5.37a5.83,5.83,0,0,0,4.85-2.23h.18v4.21a8.69,8.69,0,0,1-5.39,1.44c-5.51,0-9.15-3.64-9.15-8.79S326.15,8,331.66,8A8.83,8.83,0,0,1,337.05,9.43Z"/><path class="cls-1" d="M361.43,16.77c0,5.15-3.75,8.79-9,8.79s-9-3.64-9-8.79,3.71-8.81,9-8.81S361.43,11.59,361.43,16.77Zm-14.11,0a5.13,5.13,0,1,0,10.25,0c0-3.2-2.08-5.39-5.14-5.39S347.32,13.57,347.32,16.77Z"/><path class="cls-1" d="M394.76,15.23v10H391V15.62c0-2.77-1.23-4.24-3.5-4.24-2.55,0-3.88,1.69-3.88,5.11V25.2h-3.82V15.62c0-2.77-1.22-4.24-3.53-4.24-2.52,0-3.85,1.69-3.85,4.82v9h-3.81V8.32h3.16l.11,2.44h.07a6.24,6.24,0,0,1,10.55.22h.07c1.05-2,2.92-3,5.91-3C392.49,8,394.76,10.58,394.76,15.23Z"/><path class="cls-1" d="M405.35,17.93c.46,2.7,2.77,4.28,6.12,4.28a8.57,8.57,0,0,0,6.08-2.2h.18v3.78a10.64,10.64,0,0,1-6.41,1.77c-5.9,0-9.86-3.53-9.86-8.79A8.43,8.43,0,0,1,410.24,8c5.22,0,8.53,3.16,8.53,8.09v1.88Zm0-2.85h9.9c-.33-2.3-2.27-3.78-4.9-3.78A4.94,4.94,0,0,0,405.35,15.08Z"/><path class="cls-1" d="M447.54,25a7.17,7.17,0,0,1-3.17.61c-3.81,0-5.87-2.16-5.87-6.16V11.63h-3V8.32h3.09l.54-4.65h3.17V8.32h5.15v3.31h-5.15v7.63c0,1.83,1,2.91,2.63,2.91a3.08,3.08,0,0,0,2.41-1h.18Z"/><path class="cls-1" d="M471.4,16.77c0,5.15-3.74,8.79-9,8.79s-9-3.64-9-8.79S457.15,8,462.4,8,471.4,11.59,471.4,16.77Zm-14.11,0a5.14,5.14,0,1,0,10.26,0c0-3.2-2.09-5.39-5.15-5.39S457.29,13.57,457.29,16.77Z"/><path class="cls-1" d="M516.26,15.23v10h-3.82V15.62c0-2.77-1.22-4.24-3.49-4.24-2.55,0-3.89,1.69-3.89,5.11V25.2h-3.81V15.62c0-2.77-1.23-4.24-3.53-4.24-2.52,0-3.85,1.69-3.85,4.82v9h-3.82V8.32h3.17l.11,2.44h.07A6.24,6.24,0,0,1,504,11H504c1-2,2.92-3,5.9-3C514,8,516.26,10.58,516.26,15.23Z"/><path class="cls-1" d="M525.37,32l3.27-7.38-6.8-16.34h4.1l4.72,12.23h.07l4.75-12.23h3.93L529.29,32Z"/></g></g></svg>