<svg xmlns="http://www.w3.org/2000/svg" viewBox="0 0 554.97 38.88"><defs><style>.cls-1{fill:#991f1f;}</style></defs><g id="Layer_2" data-name="Layer 2"><g id="Layer_1-2" data-name="Layer 1"><path class="cls-1" d="M9.6.72V38.16H0V.72Z"/><path class="cls-1" d="M31.2.72h9.55V28.9h18v9.26H31.2Z"/><path class="cls-1" d="M78.05.72H87.6V28.9h18v9.26H78.05Z"/><path class="cls-1" d="M158.78.72V21.79a19.66,19.66,0,0,1-1.12,6.72,15.53,15.53,0,0,1-3.32,5.43,15.32,15.32,0,0,1-5.4,3.62,21.49,21.49,0,0,1-14.83,0,15.1,15.1,0,0,1-5.37-3.62,15.27,15.27,0,0,1-3.27-5.43,20.15,20.15,0,0,1-1.1-6.72V.72H134v20.5a9.1,9.1,0,0,0,1.92,6.24,7.18,7.18,0,0,0,5.66,2.16,7.33,7.33,0,0,0,5.74-2.16,9.06,9.06,0,0,0,1.94-6.24V.72Z"/><path class="cls-1" d="M187.73,26.93v.24a2.09,2.09,0,0,0,.38,1.13,3.93,3.93,0,0,0,1.15,1.1,6.82,6.82,0,0,0,2,.84,10.75,10.75,0,0,0,2.83.34,6.65,6.65,0,0,0,3.72-.75,2,2,0,0,0,1-1.56,2.45,2.45,0,0,0-1.49-2.06,29.48,29.48,0,0,0-4.9-2q-2.25-.72-4.68-1.7a22.08,22.08,0,0,1-4.44-2.43,12.61,12.61,0,0,1-3.33-3.5,8.89,8.89,0,0,1-1.32-4.94,10.56,10.56,0,0,1,1.08-4.83,10.69,10.69,0,0,1,3-3.65A14.28,14.28,0,0,1,187.39.82,20.06,20.06,0,0,1,193.3,0a21.1,21.1,0,0,1,6.07.84,14.91,14.91,0,0,1,4.85,2.42,11.65,11.65,0,0,1,3.21,3.82,10.54,10.54,0,0,1,1.18,5v.52h-9.36v-.33a3.09,3.09,0,0,0-.36-1.39,3.87,3.87,0,0,0-1.08-1.3,5.87,5.87,0,0,0-1.8-.94,8,8,0,0,0-2.52-.36,6,6,0,0,0-3.51.8,2.2,2.2,0,0,0-1,1.75,2.21,2.21,0,0,0,1.41,1.87,35.66,35.66,0,0,0,4.78,1.92q1.92.67,4.37,1.66a21.82,21.82,0,0,1,4.58,2.49,13.93,13.93,0,0,1,3.6,3.7,9.18,9.18,0,0,1,1.47,5.25A10,10,0,0,1,208,32.57a10.19,10.19,0,0,1-3.12,3.48,14.72,14.72,0,0,1-4.71,2.11,23,23,0,0,1-5.93.72,24.51,24.51,0,0,1-6.26-.77,16.11,16.11,0,0,1-5-2.23,10.94,10.94,0,0,1-3.36-3.62,9.84,9.84,0,0,1-1.22-4.9v-.43Z"/><path class="cls-1" d="M226.94.72h32.93V10H248.21V38.16h-9.6V10H226.94Z"/><path class="cls-1" d="M297.45.72a16.43,16.43,0,0,1,6.24,1.08,11.71,11.71,0,0,1,6.94,7.32,16.41,16.41,0,0,1,.84,5.28,15.89,15.89,0,0,1-.46,3.84,13.55,13.55,0,0,1-1.36,3.48,12.65,12.65,0,0,1-2.31,2.93,11.85,11.85,0,0,1-3.26,2.18l8.11,11.33H300.72l-7.11-10h-4.89v10h-9.55V.72Zm-8.73,8.74v10h8.21a6.52,6.52,0,0,0,2.44-.41A4.43,4.43,0,0,0,301,18a4.15,4.15,0,0,0,.91-1.58,6.24,6.24,0,0,0,.29-1.87,5.43,5.43,0,0,0-1.2-3.6q-1.2-1.44-4.08-1.44Z"/><path class="cls-1" d="M353.57.72l15.12,37.44H358.22l-2.06-5.47H341.42l-2.06,5.47H328.89L344.06.72ZM348.81,13l-4.12,11h8.2Z"/><path class="cls-1" d="M379.34.72h32.93V10H400.61V38.16H391V10H379.34Z"/><path class="cls-1" d="M441.17.72V38.16h-9.6V.72Z"/><path class="cls-1" d="M461,19.44a18.32,18.32,0,0,1,1.58-7.56,20,20,0,0,1,4.3-6.17,20.38,20.38,0,0,1,6.33-4.17,19.94,19.94,0,0,1,15.37,0,20.38,20.38,0,0,1,6.33,4.17,19.55,19.55,0,0,1,4.27,6.17,18.47,18.47,0,0,1,1.56,7.56A18.47,18.47,0,0,1,499.17,27a19.55,19.55,0,0,1-4.27,6.17,20.38,20.38,0,0,1-6.33,4.17,19.94,19.94,0,0,1-15.37,0,20.38,20.38,0,0,1-6.33-4.17,20,20,0,0,1-4.3-6.17A18.32,18.32,0,0,1,461,19.44Zm9.69,0a10,10,0,0,0,.8,4,9.69,9.69,0,0,0,2.18,3.24,10.22,10.22,0,0,0,3.24,2.16,9.9,9.9,0,0,0,4,.8,10,10,0,0,0,4-.8,9.87,9.87,0,0,0,3.21-2.16,10,10,0,0,0,2.17-3.24,10.42,10.42,0,0,0,0-8,10,10,0,0,0-2.17-3.24,9.87,9.87,0,0,0-3.21-2.16,10,10,0,0,0-4-.8,9.9,9.9,0,0,0-4,.8,10.22,10.22,0,0,0-3.24,2.16,9.69,9.69,0,0,0-2.18,3.24A10,10,0,0,0,470.68,19.44Z"/><path class="cls-1" d="M520.56,38.16V.72h8.16l16.7,20.93V.72H555V38.16h-8.11l-16.7-20.88V38.16Z"/></g></g></svg>