<svg xmlns="http://www.w3.org/2000/svg" viewBox="0 0 709.33 69.96"><defs><style>.cls-1{fill:#991f1f;}</style></defs><g id="Layer_2" data-name="Layer 2"><g id="Layer_1-2" data-name="Layer 1"><path class="cls-1" d="M0,1.3H29.71a29.7,29.7,0,0,1,11.7,2.11,23.48,23.48,0,0,1,8.25,5.7,23.27,23.27,0,0,1,4.88,8.25,29.77,29.77,0,0,1,1.6,9.76,31.3,31.3,0,0,1-1.6,10.1,23.13,23.13,0,0,1-4.88,8.34,23.48,23.48,0,0,1-8.25,5.7,29.7,29.7,0,0,1-11.7,2.12H17.27V68.66H0ZM17.27,17V37.66H28.76c3.63,0,6.19-1,7.69-3a12.12,12.12,0,0,0,2.24-7.47,14.08,14.08,0,0,0-.52-3.85,8.24,8.24,0,0,0-4.83-5.53A11.68,11.68,0,0,0,28.76,17Z"/><path class="cls-1" d="M79.46,35a32.8,32.8,0,0,1,2.85-13.6A35.63,35.63,0,0,1,90,10.28a36.72,36.72,0,0,1,11.4-7.52,36,36,0,0,1,27.63,0,36.72,36.72,0,0,1,11.4,7.52,35,35,0,0,1,7.69,11.1A33.25,33.25,0,0,1,151,35a33.25,33.25,0,0,1-2.81,13.6,35.13,35.13,0,0,1-7.69,11.1,36.52,36.52,0,0,1-11.4,7.51,35.83,35.83,0,0,1-27.63,0A36.52,36.52,0,0,1,90,59.68a35.74,35.74,0,0,1-7.73-11.1A32.8,32.8,0,0,1,79.46,35ZM96.9,35a18.25,18.25,0,0,0,1.43,7.17A17.85,17.85,0,0,0,102.26,48a18.76,18.76,0,0,0,5.83,3.88,17.86,17.86,0,0,0,7.12,1.43A18.39,18.39,0,0,0,132.1,27.81a18.1,18.1,0,0,0-16.89-11.14,17.86,17.86,0,0,0-7.12,1.42A18.79,18.79,0,0,0,102.26,22a17.74,17.74,0,0,0-3.93,5.83A18.25,18.25,0,0,0,96.9,35Z"/><path class="cls-1" d="M210.91,1.3a29.44,29.44,0,0,1,11.22,1.94,21.11,21.11,0,0,1,12.49,13.17,30.16,30.16,0,0,1,.69,16.41,24.11,24.11,0,0,1-2.47,6.26,22.39,22.39,0,0,1-4.14,5.27,21.86,21.86,0,0,1-5.87,3.93l14.59,20.38H216.78L204,50.61h-8.81v18H178V1.3ZM195.19,17V35H210a12,12,0,0,0,4.4-.73,8,8,0,0,0,2.94-2,7.48,7.48,0,0,0,1.64-2.85,10.94,10.94,0,0,0,.52-3.37,9.74,9.74,0,0,0-2.16-6.47Q215.14,17,210,17Z"/><path class="cls-1" d="M259.88,1.3h59.24V18.05h-21V68.66H280.86V18.05h-21Z"/><path class="cls-1" d="M345.21,1.3h50V18.05H362.39V30h27.55V45.6H362.39V68.66H345.21Z"/><path class="cls-1" d="M419.31,35a32.8,32.8,0,0,1,2.85-13.6,35.63,35.63,0,0,1,7.73-11.1,36.72,36.72,0,0,1,11.4-7.52,36,36,0,0,1,27.64,0,37,37,0,0,1,11.4,7.52A35.16,35.16,0,0,1,488,21.38,33.25,33.25,0,0,1,490.82,35,33.25,33.25,0,0,1,488,48.58a35.27,35.27,0,0,1-7.68,11.1,36.75,36.75,0,0,1-11.4,7.51,35.86,35.86,0,0,1-27.64,0,36.52,36.52,0,0,1-11.4-7.51,35.74,35.74,0,0,1-7.73-11.1A32.8,32.8,0,0,1,419.31,35Zm17.44,0a18.25,18.25,0,0,0,1.43,7.17A17.85,17.85,0,0,0,442.11,48a18.76,18.76,0,0,0,5.83,3.88,17.86,17.86,0,0,0,7.12,1.43A18.39,18.39,0,0,0,472,27.81,18.11,18.11,0,0,0,468.06,22a18.33,18.33,0,0,0-5.78-3.89,18.13,18.13,0,0,0-7.22-1.42,17.86,17.86,0,0,0-7.12,1.42A18.79,18.79,0,0,0,442.11,22a17.74,17.74,0,0,0-3.93,5.83A18.25,18.25,0,0,0,436.75,35Z"/><path class="cls-1" d="M517.85,1.3H535V52h32.3V68.66H517.85Z"/><path class="cls-1" d="M610.78,1.3V68.66H593.51V1.3Z"/><path class="cls-1" d="M637.81,35a32.8,32.8,0,0,1,2.85-13.6,35.79,35.79,0,0,1,7.73-11.1,37,37,0,0,1,11.4-7.52,36,36,0,0,1,27.64,0,36.72,36.72,0,0,1,11.4,7.52,35,35,0,0,1,7.69,11.1A33.25,33.25,0,0,1,709.33,35a33.25,33.25,0,0,1-2.81,13.6,35.13,35.13,0,0,1-7.69,11.1,36.52,36.52,0,0,1-11.4,7.51,35.86,35.86,0,0,1-27.64,0,36.75,36.75,0,0,1-11.4-7.51,35.91,35.91,0,0,1-7.73-11.1A32.8,32.8,0,0,1,637.81,35Zm17.45,0a18.25,18.25,0,0,0,1.43,7.17A17.85,17.85,0,0,0,660.62,48a18.76,18.76,0,0,0,5.83,3.88,17.86,17.86,0,0,0,7.12,1.43,18.39,18.39,0,0,0,16.89-25.48,18.1,18.1,0,0,0-16.89-11.14,17.86,17.86,0,0,0-7.12,1.42A18.79,18.79,0,0,0,660.62,22a17.74,17.74,0,0,0-3.93,5.83A18.25,18.25,0,0,0,655.26,35Z"/></g></g></svg>