<svg xmlns="http://www.w3.org/2000/svg" viewBox="0 0 383.61 79.98"><defs><style>.cls-1{fill:#991f1f;}</style></defs><g id="Layer_2" data-name="Layer 2"><g id="Layer_1-2" data-name="Layer 1"><path class="cls-1" d="M20.45.6,33,31.64H24.31L22.6,27.1H10.39L8.67,31.64H0L12.58.6ZM16.51,10.78,13.09,19.9H19.9Z"/><path class="cls-1" d="M48.51,31.64V.6h6.76L69.12,18V.6H77v31H70.31L56.47,14.33V31.64Z"/><path class="cls-1" d="M108.75,11.86,115.64.6H125l-12.3,19.65V31.64h-7.91V20.25L92.56.6h9.35Z"/><path class="cls-1" d="M169,22.32v.2a1.76,1.76,0,0,0,.32.94,3.13,3.13,0,0,0,1,.91,5.78,5.78,0,0,0,1.63.7,8.53,8.53,0,0,0,2.34.28,5.58,5.58,0,0,0,3.09-.62,1.66,1.66,0,0,0,.85-1.29A2,2,0,0,0,177,21.73a23.23,23.23,0,0,0-4.06-1.67c-1.25-.4-2.54-.87-3.88-1.42a17.63,17.63,0,0,1-3.68-2,10.3,10.3,0,0,1-2.76-2.9,7.37,7.37,0,0,1-1.1-4.1,8.61,8.61,0,0,1,3.4-7A11.75,11.75,0,0,1,168.72.68a16.87,16.87,0,0,1,4.9-.68,17.28,17.28,0,0,1,5,.7,12,12,0,0,1,4,2,9.64,9.64,0,0,1,2.67,3.16,8.77,8.77,0,0,1,1,4.16v.44h-7.76v-.28a2.6,2.6,0,0,0-.3-1.16A3.19,3.19,0,0,0,177.36,8a4.87,4.87,0,0,0-1.49-.78,6.63,6.63,0,0,0-2.09-.3,4.94,4.94,0,0,0-2.91.66A1.84,1.84,0,0,0,170,9a1.82,1.82,0,0,0,1.17,1.55,28,28,0,0,0,4,1.6c1.06.37,2.27.83,3.62,1.37a18.17,18.17,0,0,1,3.8,2.07,11.92,11.92,0,0,1,3,3.06A7.72,7.72,0,0,1,186.75,23a8.06,8.06,0,0,1-3.52,6.88,12.24,12.24,0,0,1-3.9,1.76,19.52,19.52,0,0,1-4.92.59,20.5,20.5,0,0,1-5.19-.63A13.78,13.78,0,0,1,165,29.75a9,9,0,0,1-2.78-3,8.05,8.05,0,0,1-1-4.06v-.36Z"/><path class="cls-1" d="M202,16.12a15.22,15.22,0,0,1,1.31-6.27,16.45,16.45,0,0,1,3.57-5.11,16.74,16.74,0,0,1,5.25-3.47,16.58,16.58,0,0,1,12.73,0,16.85,16.85,0,0,1,5.25,3.47,16.23,16.23,0,0,1,3.55,5.11,15.36,15.36,0,0,1,1.29,6.27,15.35,15.35,0,0,1-1.29,6.26,16.39,16.39,0,0,1-3.55,5.12A16.83,16.83,0,0,1,224.81,31a16.58,16.58,0,0,1-12.73,0,16.62,16.62,0,0,1-8.82-8.58A15.2,15.2,0,0,1,202,16.12Zm8,0a8.38,8.38,0,0,0,.66,3.3,8.18,8.18,0,0,0,1.81,2.69,8.68,8.68,0,0,0,2.68,1.79,8.38,8.38,0,0,0,3.28.65,8.48,8.48,0,0,0,7.79-11.74,8.32,8.32,0,0,0-1.8-2.68,8.15,8.15,0,0,0-2.66-1.79,8.32,8.32,0,0,0-3.33-.66,8.21,8.21,0,0,0-3.28.66,8.34,8.34,0,0,0-2.68,1.79,8,8,0,0,0-1.81,2.68A8.4,8.4,0,0,0,210,16.12Z"/><path class="cls-1" d="M251.33,31.64V.6h6.77L272,18V.6h7.92v31h-6.73L259.29,14.33V31.64Z"/><path class="cls-1" d="M311.9,13.53h15V31.64h-6.25V28.73a7,7,0,0,1-3.3,2.63,12,12,0,0,1-4.54.87A16,16,0,0,1,306.41,31a17,17,0,0,1-5.24-3.46,16.75,16.75,0,0,1-3.56-5.12,15.2,15.2,0,0,1-1.31-6.26,15.22,15.22,0,0,1,1.31-6.27,16.59,16.59,0,0,1,3.56-5.11,17,17,0,0,1,5.24-3.47,16.56,16.56,0,0,1,13.81.5,16.87,16.87,0,0,1,5.69,4.72l-6.49,4.37a8.28,8.28,0,0,0-2.88-2.32,8.64,8.64,0,0,0-7.07-.2A8.25,8.25,0,0,0,305,12.81a8.61,8.61,0,0,0,0,6.61,8.28,8.28,0,0,0,1.79,2.69,8.45,8.45,0,0,0,2.68,1.79,8.56,8.56,0,0,0,3.3.65,7.76,7.76,0,0,0,3.82-.95A8.17,8.17,0,0,0,319.42,21v-.87H311.9Z"/><path class="cls-1" d="M17.55,48.35a13.74,13.74,0,0,1,5.17.89,10,10,0,0,1,3.62,2.45,9.86,9.86,0,0,1,2.13,3.62,13.81,13.81,0,0,1,.32,7.56,11.22,11.22,0,0,1-1.13,2.89,10.56,10.56,0,0,1-1.91,2.43A10,10,0,0,1,23,70l6.73,9.39H20.25l-5.88-8.32H10.31v8.32H2.39v-31Zm-7.24,7.24v8.28h6.8a5.32,5.32,0,0,0,2-.34,3.59,3.59,0,0,0,1.35-.9,3.3,3.3,0,0,0,.76-1.31,5.07,5.07,0,0,0,.24-1.55,4.46,4.46,0,0,0-1-3,4.17,4.17,0,0,0-3.38-1.2Z"/><path class="cls-1" d="M44.53,63.87a15.22,15.22,0,0,1,1.31-6.27A16.56,16.56,0,0,1,54.66,49a16.47,16.47,0,0,1,12.73,0,16.77,16.77,0,0,1,5.25,3.46,16.15,16.15,0,0,1,3.54,5.11,15.77,15.77,0,0,1,0,12.54,16.15,16.15,0,0,1-3.54,5.11,16.94,16.94,0,0,1-5.25,3.46,16.58,16.58,0,0,1-12.73,0,16.87,16.87,0,0,1-5.26-3.46,16.54,16.54,0,0,1-3.56-5.11A15.22,15.22,0,0,1,44.53,63.87Zm8,0a8.48,8.48,0,0,0,.65,3.3A8.23,8.23,0,0,0,55,69.86a8.85,8.85,0,0,0,2.69,1.79A8.17,8.17,0,0,0,61,72.3a8.35,8.35,0,0,0,3.33-.65A8.48,8.48,0,0,0,67,69.86a8.43,8.43,0,0,0-6-14.43,8.18,8.18,0,0,0-3.28.66A8.67,8.67,0,0,0,55,57.88a8.23,8.23,0,0,0-1.81,2.69A8.48,8.48,0,0,0,52.57,63.87Z"/><path class="cls-1" d="M92,48.35h27.3v7.72h-9.67V79.39h-8V56.07H92Z"/><path class="cls-1" d="M133.82,63.87a15.06,15.06,0,0,1,1.32-6.27,16.37,16.37,0,0,1,3.56-5.11A16.77,16.77,0,0,1,144,49a16.49,16.49,0,0,1,12.74,0,16.77,16.77,0,0,1,5.25,3.46,16.15,16.15,0,0,1,3.54,5.11,15.88,15.88,0,0,1,0,12.54,16.15,16.15,0,0,1-3.54,5.11,16.94,16.94,0,0,1-5.25,3.46,16.61,16.61,0,0,1-12.74,0,16.94,16.94,0,0,1-5.25-3.46,16.37,16.37,0,0,1-3.56-5.11A15.06,15.06,0,0,1,133.82,63.87Zm8,0a8.31,8.31,0,0,0,.66,3.3,8.23,8.23,0,0,0,1.81,2.69A8.73,8.73,0,0,0,147,71.65a8.17,8.17,0,0,0,3.28.65,8.3,8.3,0,0,0,3.32-.65,8.64,8.64,0,0,0,2.67-1.79,8.5,8.5,0,0,0,1.79-2.69,8.58,8.58,0,0,0,0-6.6,8.25,8.25,0,0,0-4.46-4.48,8.3,8.3,0,0,0-3.32-.66,8.18,8.18,0,0,0-3.28.66,8.56,8.56,0,0,0-2.69,1.79,8.23,8.23,0,0,0-1.81,2.69A8.31,8.31,0,0,0,141.86,63.87Z"/><path class="cls-1" d="M189.73,70.08v.2a1.76,1.76,0,0,0,.32.93,3,3,0,0,0,1,.91,5.62,5.62,0,0,0,1.63.7,8.55,8.55,0,0,0,2.35.28,5.48,5.48,0,0,0,3.08-.62,1.68,1.68,0,0,0,.86-1.29,2.05,2.05,0,0,0-1.24-1.71,23.23,23.23,0,0,0-4.06-1.67c-1.24-.4-2.54-.87-3.88-1.41a18.6,18.6,0,0,1-3.68-2,10.62,10.62,0,0,1-2.76-2.91,7.45,7.45,0,0,1-1.1-4.1,8.58,8.58,0,0,1,3.41-7,11.55,11.55,0,0,1,3.84-1.93,16.75,16.75,0,0,1,4.89-.68,17.28,17.28,0,0,1,5,.7,11.86,11.86,0,0,1,4,2,9.64,9.64,0,0,1,2.67,3.16,8.77,8.77,0,0,1,1,4.16v.44h-7.76v-.28a2.51,2.51,0,0,0-.29-1.15,3.25,3.25,0,0,0-.9-1.08,4.76,4.76,0,0,0-1.49-.78,6.9,6.9,0,0,0-2.09-.29,5,5,0,0,0-2.91.65,1.84,1.84,0,0,0-.87,1.46c0,.61.39,1.12,1.17,1.55a29.55,29.55,0,0,0,4,1.59c1.06.37,2.27.83,3.62,1.37a18.86,18.86,0,0,1,3.8,2.07,11.8,11.8,0,0,1,3,3.07,7.59,7.59,0,0,1,1.21,4.35A8,8,0,0,1,204,77.64a12.23,12.23,0,0,1-3.9,1.75,19,19,0,0,1-4.91.59,20.53,20.53,0,0,1-5.2-.63,13.64,13.64,0,0,1-4.18-1.85,9,9,0,0,1-2.78-3,8,8,0,0,1-1-4.06v-.35Z"/><path class="cls-1" d="M253.88,71.07a16.42,16.42,0,0,1-2.55,3.62,16,16,0,0,1-3.42,2.81,17.15,17.15,0,0,1-4.14,1.83,16.58,16.58,0,0,1-11-.62,16.94,16.94,0,0,1-5.25-3.46A16.37,16.37,0,0,1,224,70.14a15.55,15.55,0,0,1,0-12.54,16.37,16.37,0,0,1,3.56-5.11A16.77,16.77,0,0,1,232.81,49a16.08,16.08,0,0,1,6.35-1.28,15.92,15.92,0,0,1,4.59.66,17.53,17.53,0,0,1,4.12,1.81A15.6,15.6,0,0,1,251.29,53a17,17,0,0,1,2.55,3.59l-7.24,3.26a8,8,0,0,0-3-3.2,8.6,8.6,0,0,0-7.72-.56,8.62,8.62,0,0,0-2.68,1.79,8.23,8.23,0,0,0-1.81,2.69,8.58,8.58,0,0,0,0,6.6,8.23,8.23,0,0,0,1.81,2.69,8.8,8.8,0,0,0,2.68,1.79,8.37,8.37,0,0,0,10.73-3.76Z"/><path class="cls-1" d="M268.33,63.87a15.06,15.06,0,0,1,1.31-6.27,16.37,16.37,0,0,1,3.56-5.11A16.77,16.77,0,0,1,278.45,49a16.49,16.49,0,0,1,12.74,0,16.77,16.77,0,0,1,5.25,3.46A16.15,16.15,0,0,1,300,57.6a15.88,15.88,0,0,1,0,12.54,16.15,16.15,0,0,1-3.54,5.11,16.94,16.94,0,0,1-5.25,3.46,16.61,16.61,0,0,1-12.74,0,16.94,16.94,0,0,1-5.25-3.46,16.37,16.37,0,0,1-3.56-5.11A15.06,15.06,0,0,1,268.33,63.87Zm8,0a8.31,8.31,0,0,0,.66,3.3,8.23,8.23,0,0,0,1.81,2.69,8.85,8.85,0,0,0,2.69,1.79,8.17,8.17,0,0,0,3.28.65,8.3,8.3,0,0,0,3.32-.65,8.64,8.64,0,0,0,2.67-1.79,8.5,8.5,0,0,0,1.79-2.69,8.58,8.58,0,0,0,0-6.6,8.25,8.25,0,0,0-4.46-4.48,8.3,8.3,0,0,0-3.32-.66,8.18,8.18,0,0,0-3.28.66,8.67,8.67,0,0,0-2.69,1.79A8.23,8.23,0,0,0,277,60.57,8.31,8.31,0,0,0,276.36,63.87Z"/><path class="cls-1" d="M317.71,48.35H331.4a13.69,13.69,0,0,1,5.39,1,10.81,10.81,0,0,1,3.8,2.63,10.68,10.68,0,0,1,2.25,3.8,13.79,13.79,0,0,1,.74,4.5,14.52,14.52,0,0,1-.74,4.65,10.59,10.59,0,0,1-2.25,3.84,10.81,10.81,0,0,1-3.8,2.63,13.69,13.69,0,0,1-5.39,1h-5.73v7h-8Zm8,7.24V65.1H331a4.17,4.17,0,0,0,3.54-1.37,5.56,5.56,0,0,0,1-3.44,6.52,6.52,0,0,0-.24-1.77,4,4,0,0,0-.8-1.52,3.9,3.9,0,0,0-1.43-1,5.34,5.34,0,0,0-2.11-.38Z"/><path class="cls-1" d="M359.77,48.35h23.84v7.72H367.73v4.46h13v7.2h-13v4h15.88v7.68H359.77Z"/></g></g></svg>