<svg xmlns="http://www.w3.org/2000/svg" viewBox="0 0 237.13 79.98"><defs><style>.cls-1{fill:#991f1f;}</style></defs><g id="Layer_2" data-name="Layer 2"><g id="Layer_1-2" data-name="Layer 1"><path class="cls-1" d="M1.23.6H16.67a13.94,13.94,0,0,1,4.4.63A8.65,8.65,0,0,1,24.21,3,7.38,7.38,0,0,1,26.1,5.75a8.87,8.87,0,0,1,.64,3.4,7.33,7.33,0,0,1-1,4A7.49,7.49,0,0,1,23,15.68a8.6,8.6,0,0,1,3.78,2.68,7.08,7.08,0,0,1,1.39,4.52,8.84,8.84,0,0,1-.69,3.52,8,8,0,0,1-2,2.79A9.13,9.13,0,0,1,22.24,31a13.11,13.11,0,0,1-4.21.64H1.23Zm8,7.24v4.93h6.57a3.13,3.13,0,0,0,2.29-.67,2.49,2.49,0,0,0,.65-1.79,2.54,2.54,0,0,0-.61-1.79,2.43,2.43,0,0,0-1.89-.68ZM9.19,19v5.45h8a2.9,2.9,0,0,0,2.29-.77,3,3,0,0,0,.66-2,2.77,2.77,0,0,0-.66-1.93A3,3,0,0,0,17.15,19Z"/><path class="cls-1" d="M43.21,16.12a15.06,15.06,0,0,1,1.32-6.27,16.26,16.26,0,0,1,3.56-5.11,17,17,0,0,1,5.25-3.47,16.61,16.61,0,0,1,12.74,0,17,17,0,0,1,5.25,3.47,16,16,0,0,1,3.54,5.11,15.36,15.36,0,0,1,1.29,6.27,15.35,15.35,0,0,1-1.29,6.26,16.19,16.19,0,0,1-3.54,5.12A16.94,16.94,0,0,1,66.08,31a16.61,16.61,0,0,1-12.74,0,16.94,16.94,0,0,1-5.25-3.46,16.41,16.41,0,0,1-3.56-5.12A15.05,15.05,0,0,1,43.21,16.12Zm8,0a8.42,8.42,0,0,0,2.47,6,8.73,8.73,0,0,0,2.69,1.79,8.35,8.35,0,0,0,3.28.65A8.47,8.47,0,0,0,63,23.9a8.25,8.25,0,0,0,4.46-4.48A8.41,8.41,0,0,0,63,8.34a8.3,8.3,0,0,0-3.32-.66,8.18,8.18,0,0,0-3.28.66,8.39,8.39,0,0,0-2.69,1.79,8.18,8.18,0,0,0-1.81,2.68A8.4,8.4,0,0,0,51.25,16.12Z"/><path class="cls-1" d="M92.6.6H108a13.94,13.94,0,0,1,4.4.63A8.73,8.73,0,0,1,115.58,3a7.5,7.5,0,0,1,1.89,2.73,9.06,9.06,0,0,1,.64,3.4,7.24,7.24,0,0,1-1,4,7.46,7.46,0,0,1-2.76,2.55,8.6,8.6,0,0,1,3.78,2.68,7.14,7.14,0,0,1,1.39,4.52,8.68,8.68,0,0,1-.7,3.52,7.73,7.73,0,0,1-2,2.79A9,9,0,0,1,113.61,31a13.17,13.17,0,0,1-4.22.64H92.6Zm8,7.24v4.93h6.56a3.13,3.13,0,0,0,2.29-.67,2.46,2.46,0,0,0,.66-1.79,2.55,2.55,0,0,0-.62-1.79,2.4,2.4,0,0,0-1.89-.68Zm0,11.14v5.45h8a2.87,2.87,0,0,0,2.28-.77,3,3,0,0,0,.66-2,2.77,2.77,0,0,0-.66-1.93,2.94,2.94,0,0,0-2.28-.74Z"/><path class="cls-1" d="M154.12.6l12.53,31H158l-1.71-4.54H144.05l-1.71,4.54h-8.67L146.24.6Zm-3.94,10.18-3.42,9.12h6.8Z"/><path class="cls-1" d="M7.76,70.08v.2a1.76,1.76,0,0,0,.32.93,3.08,3.08,0,0,0,.95.91,5.75,5.75,0,0,0,1.63.7A8.65,8.65,0,0,0,13,73.1a5.49,5.49,0,0,0,3.09-.62A1.66,1.66,0,0,0,17,71.19a2,2,0,0,0-1.23-1.71,23.58,23.58,0,0,0-4.06-1.67c-1.25-.4-2.54-.87-3.88-1.41a18.32,18.32,0,0,1-3.68-2,10.51,10.51,0,0,1-2.77-2.91,7.45,7.45,0,0,1-1.09-4.1,8.54,8.54,0,0,1,3.4-7,11.65,11.65,0,0,1,3.84-1.93,16.87,16.87,0,0,1,4.9-.68,17.28,17.28,0,0,1,5,.7,12,12,0,0,1,4,2,9.61,9.61,0,0,1,2.66,3.16,8.78,8.78,0,0,1,1,4.16v.44H17.31v-.28a2.53,2.53,0,0,0-.3-1.15,3.34,3.34,0,0,0-.89-1.08,4.82,4.82,0,0,0-1.5-.78,6.83,6.83,0,0,0-2.08-.29,4.92,4.92,0,0,0-2.91.65,1.86,1.86,0,0,0-.88,1.46c0,.61.4,1.12,1.18,1.55a29.55,29.55,0,0,0,4,1.59c1.06.37,2.27.83,3.62,1.37a19.14,19.14,0,0,1,3.8,2.07,11.76,11.76,0,0,1,3,3.07,7.59,7.59,0,0,1,1.22,4.35A8.1,8.1,0,0,1,22,77.64a12.43,12.43,0,0,1-3.9,1.75,19.07,19.07,0,0,1-4.92.59A20.39,20.39,0,0,1,8,79.35,13.43,13.43,0,0,1,3.8,77.5a9,9,0,0,1-2.79-3,8.12,8.12,0,0,1-1-4.06v-.35Z"/><path class="cls-1" d="M42.18,48.35H55.87a13.66,13.66,0,0,1,5.39,1A10.81,10.81,0,0,1,65.06,52a10.68,10.68,0,0,1,2.25,3.8,13.79,13.79,0,0,1,.74,4.5,14.52,14.52,0,0,1-.74,4.65,10.59,10.59,0,0,1-2.25,3.84,10.81,10.81,0,0,1-3.8,2.63,13.66,13.66,0,0,1-5.39,1H50.14v7h-8Zm8,7.24V65.1h5.29A4.17,4.17,0,0,0,59,63.73a5.56,5.56,0,0,0,1-3.44,6.52,6.52,0,0,0-.24-1.77A4,4,0,0,0,59,57a3.9,3.9,0,0,0-1.43-1,5.34,5.34,0,0,0-2.11-.38Z"/><path class="cls-1" d="M84.24,48.35h7.92V71.71H107v7.68H84.24Z"/><path class="cls-1" d="M141.15,48.35l12.53,31H145l-1.72-4.54H131.08l-1.71,4.54h-8.68l12.58-31Zm-3.94,10.19-3.43,9.11h6.81Z"/><path class="cls-1" d="M174.18,70.08v.2a1.74,1.74,0,0,0,.31.93,3.13,3.13,0,0,0,1,.91,5.62,5.62,0,0,0,1.63.7,8.6,8.6,0,0,0,2.35.28,5.48,5.48,0,0,0,3.08-.62,1.68,1.68,0,0,0,.86-1.29,2,2,0,0,0-1.24-1.71,23.4,23.4,0,0,0-4-1.67c-1.25-.4-2.54-.87-3.88-1.41a18.68,18.68,0,0,1-3.69-2,10.62,10.62,0,0,1-2.76-2.91,7.45,7.45,0,0,1-1.1-4.1,8.58,8.58,0,0,1,3.41-7,11.55,11.55,0,0,1,3.84-1.93,16.75,16.75,0,0,1,4.89-.68,17.35,17.35,0,0,1,5,.7,11.9,11.9,0,0,1,4,2,9.64,9.64,0,0,1,2.67,3.16,8.78,8.78,0,0,1,1,4.16v.44h-7.76v-.28a2.53,2.53,0,0,0-.3-1.15,3.25,3.25,0,0,0-.9-1.08,4.76,4.76,0,0,0-1.49-.78,6.9,6.9,0,0,0-2.09-.29,4.91,4.91,0,0,0-2.9.65,1.83,1.83,0,0,0-.88,1.46c0,.61.39,1.12,1.17,1.55a30.74,30.74,0,0,0,4,1.59c1.06.37,2.27.83,3.62,1.37a19.22,19.22,0,0,1,3.81,2.07,11.76,11.76,0,0,1,3,3.07,7.59,7.59,0,0,1,1.21,4.35,8,8,0,0,1-3.52,6.89,12.23,12.23,0,0,1-3.9,1.75,19,19,0,0,1-4.91.59,20.53,20.53,0,0,1-5.2-.63,13.48,13.48,0,0,1-4.17-1.85,9,9,0,0,1-2.79-3,8,8,0,0,1-1-4.06v-.35Z"/><path class="cls-1" d="M237.13,48.35v31h-8V67.85H216.51V79.39H208.6v-31h7.91V60.41h12.66V48.35Z"/></g></g></svg>