<svg xmlns="http://www.w3.org/2000/svg" viewBox="0 0 233.03 78.79"><defs><style>.cls-1{fill:#991f1f;}</style></defs><g id="Layer_2" data-name="Layer 2"><g id="Layer_1-2" data-name="Layer 1"><path class="cls-1" d="M28.53,0V31h-8V19.5H7.92V31H0V0H7.92V12.06H20.57V0Z"/><path class="cls-1" d="M54.4,0V31h-8V0Z"/><path class="cls-1" d="M72.3,0H86.71A15.63,15.63,0,0,1,93.1,1.23,13,13,0,0,1,97.69,4.6a14.64,14.64,0,0,1,2.77,5,18.94,18.94,0,0,1,.93,6,19.1,19.1,0,0,1-.93,6,14.36,14.36,0,0,1-2.77,4.93,13.06,13.06,0,0,1-4.59,3.35A15.63,15.63,0,0,1,86.71,31H72.3Zm8,7.72V23.36h5.85a7.9,7.9,0,0,0,3.15-.58,6.18,6.18,0,0,0,2.26-1.61A6.85,6.85,0,0,0,92.9,18.7a10.53,10.53,0,0,0,.45-3.18,8.42,8.42,0,0,0-1.83-5.65,6.72,6.72,0,0,0-5.41-2.15Z"/><path class="cls-1" d="M118,0h14.4a15.6,15.6,0,0,1,6.39,1.23,13.11,13.11,0,0,1,4.6,3.37,14.62,14.62,0,0,1,2.76,5,18.94,18.94,0,0,1,.94,6,19.1,19.1,0,0,1-.94,6,14.34,14.34,0,0,1-2.76,4.93,13.19,13.19,0,0,1-4.6,3.35A15.6,15.6,0,0,1,132.39,31H118Zm8,7.72V23.36h5.84a7.87,7.87,0,0,0,3.15-.58,6.22,6.22,0,0,0,2.27-1.61,6.83,6.83,0,0,0,1.37-2.47,10.52,10.52,0,0,0,.46-3.18,8.42,8.42,0,0,0-1.83-5.65,6.74,6.74,0,0,0-5.42-2.15Z"/><path class="cls-1" d="M163.67,0H187.5V7.72H171.63v4.46h13.05v7.2H171.63v4H187.5V31H163.67Z"/><path class="cls-1" d="M204.5,31V0h6.76l13.85,17.35V0H233V31H226.3L212.46,13.73V31Z"/><path class="cls-1" d="M0,47.75H15.44a13.65,13.65,0,0,1,4.4.64A8.51,8.51,0,0,1,23,50.18a7.38,7.38,0,0,1,1.89,2.73,9,9,0,0,1,.64,3.4,7.24,7.24,0,0,1-1,4,7.35,7.35,0,0,1-2.76,2.54,8.62,8.62,0,0,1,3.78,2.69A7.08,7.08,0,0,1,26.9,70a8.71,8.71,0,0,1-.7,3.52,7.78,7.78,0,0,1-2,2.78A8.85,8.85,0,0,1,21,78.15a12.9,12.9,0,0,1-4.22.64H0ZM8,55v4.94h6.56a3.12,3.12,0,0,0,2.29-.68,2.44,2.44,0,0,0,.66-1.79,2.56,2.56,0,0,0-.62-1.79A2.44,2.44,0,0,0,15,55ZM8,66.14v5.45h8a2.88,2.88,0,0,0,2.29-.78,3.05,3.05,0,0,0,.65-2,2.83,2.83,0,0,0-.65-1.93,3,3,0,0,0-2.29-.73Z"/><path class="cls-1" d="M43.45,47.75h7.92V71.11H66.26v7.68H43.45Z"/><path class="cls-1" d="M100.36,47.75l12.53,31h-8.67l-1.71-4.54H90.29l-1.71,4.54H79.9l12.58-31ZM96.42,57.94,93,67.05h6.8Z"/><path class="cls-1" d="M128.41,47.75h14.41A15.47,15.47,0,0,1,149.21,49a12.84,12.84,0,0,1,4.59,3.36,14.64,14.64,0,0,1,2.77,4.95,19.76,19.76,0,0,1,0,12,14.36,14.36,0,0,1-2.77,4.93,12.93,12.93,0,0,1-4.59,3.35,15.63,15.63,0,0,1-6.39,1.23H128.41Zm8,7.72V71.11h5.85a7.9,7.9,0,0,0,3.15-.58,6.18,6.18,0,0,0,2.26-1.61A6.89,6.89,0,0,0,149,66.46a10.64,10.64,0,0,0,.45-3.19,8.42,8.42,0,0,0-1.83-5.65,6.72,6.72,0,0,0-5.41-2.15Z"/><path class="cls-1" d="M174.1,47.75h23.83v7.72H182.05v4.46h13.06v7.2H182.05v4h15.88v7.68H174.1Z"/></g></g></svg>