<svg xmlns="http://www.w3.org/2000/svg" viewBox="0 0 134.91 80"><g id="Layer_2" data-name="Layer 2"><g id="Layer_1-2" data-name="Layer 1"><path d="M20.33,42.89V39.48a12.1,12.1,0,0,1-9.52,4C4.88,43.48,0,40.07,0,33.84v-.11c0-6.88,5.23-10,12.69-10A22.49,22.49,0,0,1,20.39,25v-.53c0-3.7-2.29-5.76-6.76-5.76a23,23,0,0,0-8.69,1.71L2.7,13.57a27.93,27.93,0,0,1,12.22-2.52C24.68,11.05,29,16.1,29,24.62V42.89Zm.18-12.69A14,14,0,0,0,14.81,29C11,29,8.64,30.55,8.64,33.37v.12c0,2.41,2,3.82,4.87,3.82,4.18,0,7-2.29,7-5.52Z"/><path d="M53.12,42.89,44.89,30l-3.11,3.29v9.58H32.85V0h8.93V22.86L52.24,11.4H62.93l-12,12.4,12.4,19.09Z"/><path d="M83.5,42.89V39.48a12.13,12.13,0,0,1-9.52,4c-5.94,0-10.81-3.41-10.81-9.64v-.11c0-6.88,5.22-10,12.69-10A22.43,22.43,0,0,1,83.55,25v-.53c0-3.7-2.29-5.76-6.75-5.76a23.14,23.14,0,0,0-8.7,1.71l-2.23-6.82a27.86,27.86,0,0,1,12.22-2.52c9.75,0,14,5.05,14,13.57V42.89Zm.17-12.69A13.92,13.92,0,0,0,78,29c-3.82,0-6.17,1.52-6.17,4.34v.12c0,2.41,2,3.82,4.88,3.82,4.17,0,7-2.29,7-5.52Z"/><path d="M41,79.29V61.73c0-4.23-1.88-6.41-5.23-6.41s-5.4,2.18-5.4,6.41V79.29H21.45V61.73c0-4.23-1.88-6.41-5.23-6.41s-5.41,2.18-5.41,6.41V79.29H1.88V47.8h8.93v4.47c2.06-2.65,4.76-5.06,9.28-5.06,4.12,0,7.23,1.83,8.88,5a13,13,0,0,1,10.34-5c6.64,0,10.63,4,10.63,11.58v20.5Z"/><path d="M69.85,80c-9.75,0-17-7.23-17-16.28v-.11c0-9,7.29-16.4,17.1-16.4s17,7.23,17,16.28v.12C87,72.66,79.66,80,69.85,80Zm8.29-16.39c0-4.64-3.35-8.7-8.29-8.7-5.11,0-8.17,3.94-8.17,8.58v.12c0,4.64,3.35,8.69,8.29,8.69,5.11,0,8.17-3.93,8.17-8.58Z"/><path d="M105.56,80c-9.75,0-17-7.23-17-16.28v-.11c0-9,7.29-16.4,17.1-16.4s17,7.23,17,16.28v.12C122.66,72.66,115.38,80,105.56,80Zm8.29-16.39c0-4.64-3.35-8.7-8.29-8.7-5.11,0-8.16,3.94-8.16,8.58v.12c0,4.64,3.34,8.69,8.28,8.69,5.11,0,8.17-3.93,8.17-8.58Z"/><path d="M125.39,74.59h0a4.7,4.7,0,0,1,4.7-4.7h.12a4.71,4.71,0,0,1,4.7,4.7h0a4.7,4.7,0,0,1-4.7,4.7h-.12A4.69,4.69,0,0,1,125.39,74.59Z"/></g></g></svg>