<svg xmlns="http://www.w3.org/2000/svg" viewBox="0 0 40 40"><defs><style>.cls-1{fill:#f1f1f1;}</style></defs><g id="Layer_2" data-name="Layer 2"><g id="Layer_1-2" data-name="Layer 1"><circle cx="20" cy="20" r="20"/><path class="cls-1" d="M17.08,6.89c.2,0,.32,0,.44,0h4.15a2.68,2.68,0,0,1,2.47,1.42q2.37,4.19,4.75,8.37,2.05,3.63,4.12,7.24a2.82,2.82,0,0,1,0,3c-.71,1.21-1.39,2.43-2.09,3.65l-.17.25Z"/><path class="cls-1" d="M26.26,30.86h-15a2.56,2.56,0,0,1-2.34-1.31C8.11,28.27,7.39,27,6.65,25.66a1.15,1.15,0,0,1-.1-.24l.38,0H22.81a.54.54,0,0,1,.54.31q1.37,2.41,2.75,4.81C26.15,30.6,26.18,30.7,26.26,30.86Z"/><path class="cls-1" d="M14.88,10.83l6,10.59H8.74l6-10.59Z"/></g></g></svg>