<svg xmlns="http://www.w3.org/2000/svg" viewBox="0 0 928.83 2"><g id="Layer_2" data-name="Layer 2"><g id="Layer_1-2" data-name="Layer 1"><path d="M928.83,2h-6V0h6Zm-12,0h-6V0h6Zm-12,0h-6V0h6Zm-12,0h-6V0h6Zm-12,0h-6V0h6Zm-12,0h-6V0h6Zm-12,0h-6V0h6Zm-12,0h-6V0h6Zm-12,0h-6V0h6Zm-12,0h-6V0h6Zm-12,0h-6V0h6Zm-12,0h-6V0h6Zm-12,0h-6V0h6Zm-12,0h-6V0h6Zm-12,0h-6V0h6Zm-12,0h-6V0h6Zm-12,0h-6V0h6Zm-12,0h-6V0h6Zm-12,0h-6V0h6Zm-12,0h-6V0h6Zm-12,0h-6V0h6Zm-12,0h-6V0h6Zm-12,0h-6V0h6Zm-12,0h-6V0h6Zm-12,0h-6V0h6Zm-12,0h-6V0h6Zm-12,0h-6V0h6Zm-12,0h-6V0h6Zm-12,0h-6V0h6Zm-12,0h-6V0h6Zm-12,0h-6V0h6Zm-12,0h-6V0h6Zm-12,0h-6V0h6Zm-12,0h-6V0h6Zm-12,0h-6V0h6Zm-12,0h-6V0h6Zm-12,0h-6V0h6Zm-12,0h-6V0h6Zm-12,0h-6V0h6Zm-12,0h-6V0h6Zm-12,0h-6V0h6Zm-12,0h-6V0h6Zm-12,0h-6V0h6Zm-12,0h-6V0h6Zm-12,0h-6V0h6Zm-12,0h-6V0h6Zm-12,0h-6V0h6Zm-12,0h-6V0h6Zm-12,0h-6V0h6Zm-12,0h-6V0h6Zm-12,0h-6V0h6Zm-12,0h-6V0h6Zm-12,0h-6V0h6Zm-12,0h-6V0h6Zm-12,0h-6V0h6Zm-12,0h-6V0h6Zm-12,0h-6V0h6Zm-12,0h-6V0h6Zm-12,0h-6V0h6Zm-12,0h-6V0h6Zm-12,0h-6V0h6Zm-12,0h-6V0h6Zm-12,0h-6V0h6Zm-12,0h-6V0h6Zm-12,0h-6V0h6Zm-12,0h-6V0h6Zm-12,0h-6V0h6Zm-12,0h-6V0h6Zm-12,0h-6V0h6Zm-12,0h-6V0h6Zm-12,0h-6V0h6Zm-12,0h-6V0h6Zm-12,0h-6V0h6Zm-12,0h-6V0h6Zm-12,0h-6V0h6Zm-12,0h-6V0h6Zm-12,0h-6V0h6Zm-12,0H0V0H4.83Z"/></g></g></svg>