<svg xmlns="http://www.w3.org/2000/svg" viewBox="0 0 40 40"><defs><style>.cls-1{fill:#f2efeb;}</style></defs><g id="Layer_2" data-name="Layer 2"><g id="Layer_1-2" data-name="Layer 1"><circle cx="20" cy="20" r="20"/><path class="cls-1" d="M6.5,19.41c0-1.42.06-3.44.15-5.46A7.88,7.88,0,0,1,7.93,9.8a6.87,6.87,0,0,1,4.58-3,14.85,14.85,0,0,1,2.57-.27c2.47,0,4.93-.06,7.4,0,1.37,0,2.74,0,4.11.16a7.22,7.22,0,0,1,5.09,2.54,6.87,6.87,0,0,1,1.58,3.5,19.91,19.91,0,0,1,.22,2.78c0,3,0,6,0,9a13.53,13.53,0,0,1-.31,3.17A6.89,6.89,0,0,1,28,33.05a9.9,9.9,0,0,1-2.16.33q-5.91.27-11.82,0A7.9,7.9,0,0,1,9.57,31.9a6.86,6.86,0,0,1-2.71-4.38A16.58,16.58,0,0,1,6.59,25C6.53,23.32,6.53,21.67,6.5,19.41ZM20,31.1v0c1,0,2,0,3,0a36.91,36.91,0,0,0,3.8-.22,4.48,4.48,0,0,0,3.89-3.17A8.27,8.27,0,0,0,31.05,25c0-3.33,0-6.66,0-10a11.32,11.32,0,0,0-.21-2,4.51,4.51,0,0,0-3.7-3.8,13.94,13.94,0,0,0-3-.24q-3.66,0-7.33,0a20.23,20.23,0,0,0-3.64.22,4.57,4.57,0,0,0-3.84,3.52A10.91,10.91,0,0,0,9,15.54c0,2.64,0,5.28,0,7.92A18.51,18.51,0,0,0,9.23,27,4.65,4.65,0,0,0,11,30a5.5,5.5,0,0,0,3.18,1C16.15,31,18.09,31.05,20,31.1Z"/><path class="cls-1" d="M20,26.93A6.94,6.94,0,1,1,27,20,7,7,0,0,1,20,26.93Zm0-2.44A4.5,4.5,0,1,0,15.54,20,4.49,4.49,0,0,0,20,24.49Z"/><path class="cls-1" d="M28.86,12.8a1.61,1.61,0,0,1-1.64,1.6,1.64,1.64,0,0,1-1.59-1.65,1.61,1.61,0,0,1,1.65-1.59A1.59,1.59,0,0,1,28.86,12.8Z"/></g></g></svg>