<svg xmlns="http://www.w3.org/2000/svg" viewBox="0 0 40 40"><defs><style>.cls-1{fill:#f2efeb;}</style></defs><g id="Layer_2" data-name="Layer 2"><g id="Layer_1-2" data-name="Layer 1"><circle cx="20" cy="20" r="20"/><path class="cls-1" d="M33.5,27.87l-8.17-6.66c-.33-.26-.64-.53-1-.82l7.13-6.48c.66-.6,1.35-1.18,2-1.77Z"/><path class="cls-1" d="M6.5,12.14c1.1,1,2.21,1.95,3.31,2.94,1.94,1.75,3.87,3.52,5.86,5.33L6.5,27.87Z"/><path class="cls-1" d="M20,21.28,8.12,10.49H31.88Z"/><path class="cls-1" d="M22.64,22l9.26,7.56H8.1L17.35,22c.6.54,1.17,1.07,1.76,1.58a1.16,1.16,0,0,0,1.79,0C21.47,23,22,22.5,22.64,22Z"/></g></g></svg>