<svg xmlns="http://www.w3.org/2000/svg" viewBox="0 0 296.64 38.88"><defs><style>.cls-1{fill:#991f1f;}</style></defs><g id="Layer_2" data-name="Layer 2"><g id="Layer_1-2" data-name="Layer 1"><path class="cls-1" d="M0,19.44a18.32,18.32,0,0,1,1.58-7.56,20,20,0,0,1,4.3-6.17,20.31,20.31,0,0,1,6.34-4.17A19.26,19.26,0,0,1,19.87,0a19.48,19.48,0,0,1,7.71,1.54,20.38,20.38,0,0,1,6.33,4.17,19.55,19.55,0,0,1,4.27,6.17,18.47,18.47,0,0,1,1.56,7.56A18.47,18.47,0,0,1,38.18,27a19.55,19.55,0,0,1-4.27,6.17,20.38,20.38,0,0,1-6.33,4.17,19.48,19.48,0,0,1-7.71,1.54,19.26,19.26,0,0,1-7.65-1.54,20.31,20.31,0,0,1-6.34-4.17A20,20,0,0,1,1.58,27,18.32,18.32,0,0,1,0,19.44Zm9.7,0a10,10,0,0,0,.79,4,9.84,9.84,0,0,0,2.18,3.24,10.22,10.22,0,0,0,3.24,2.16,9.9,9.9,0,0,0,4,.8,10,10,0,0,0,9.39-6.2,10.28,10.28,0,0,0-2.16-11.2,10.18,10.18,0,0,0-7.23-3,9.9,9.9,0,0,0-4,.8,10.22,10.22,0,0,0-3.24,2.16,9.84,9.84,0,0,0-2.18,3.24A10,10,0,0,0,9.7,19.44Z"/><path class="cls-1" d="M57.26.72H90.19V10H78.53V38.16h-9.6V10H57.26Z"/><path class="cls-1" d="M143.9.72V38.16h-9.6V24.24H119V38.16h-9.55V.72H119V15.26H134.3V.72Z"/><path class="cls-1" d="M165.5.72h28.75V10H175.1v5.38h15.75V24.1H175.1v4.8h19.15v9.26H165.5Z"/><path class="cls-1" d="M233,.72a16.43,16.43,0,0,1,6.24,1.08,12.09,12.09,0,0,1,4.37,3,12.07,12.07,0,0,1,2.56,4.37,16.84,16.84,0,0,1,.39,9.12,13.57,13.57,0,0,1-1.37,3.48,12.87,12.87,0,0,1-2.3,2.93,11.9,11.9,0,0,1-3.27,2.18l8.11,11.33H236.3l-7.1-10h-4.9v10h-9.55V.72ZM224.3,9.46v10h8.21A6.57,6.57,0,0,0,235,19,4.47,4.47,0,0,0,236.59,18a4,4,0,0,0,.91-1.58,6.24,6.24,0,0,0,.29-1.87,5.43,5.43,0,0,0-1.2-3.6q-1.2-1.44-4.08-1.44Z"/><path class="cls-1" d="M275.23,26.93v.24a2.17,2.17,0,0,0,.38,1.13,3.85,3.85,0,0,0,1.16,1.1,6.75,6.75,0,0,0,2,.84,10.78,10.78,0,0,0,2.84.34,6.67,6.67,0,0,0,3.72-.75,2,2,0,0,0,1-1.56,2.45,2.45,0,0,0-1.49-2.06,28.75,28.75,0,0,0-4.9-2q-2.25-.72-4.68-1.7a22.08,22.08,0,0,1-4.44-2.43,12.61,12.61,0,0,1-3.33-3.5,9,9,0,0,1-1.32-4.94,10.56,10.56,0,0,1,1.08-4.83,10.81,10.81,0,0,1,3-3.65A14.28,14.28,0,0,1,274.89.82,20.1,20.1,0,0,1,280.8,0a21.1,21.1,0,0,1,6.07.84,14.81,14.81,0,0,1,4.85,2.42,11.65,11.65,0,0,1,3.21,3.82,10.54,10.54,0,0,1,1.18,5v.52h-9.36v-.33a3.09,3.09,0,0,0-.36-1.39,3.87,3.87,0,0,0-1.08-1.3,5.87,5.87,0,0,0-1.8-.94A8,8,0,0,0,281,8.3a5.92,5.92,0,0,0-3.5.8,2.19,2.19,0,0,0-1.06,1.75,2.2,2.2,0,0,0,1.42,1.87,34.83,34.83,0,0,0,4.77,1.92q1.92.67,4.37,1.66a21.82,21.82,0,0,1,4.58,2.49,13.93,13.93,0,0,1,3.6,3.7,9.18,9.18,0,0,1,1.47,5.25,9.71,9.71,0,0,1-4.25,8.31,14.77,14.77,0,0,1-4.7,2.11,23.11,23.11,0,0,1-5.93.72,24.59,24.59,0,0,1-6.27-.77,16.11,16.11,0,0,1-5-2.23,10.94,10.94,0,0,1-3.36-3.62,9.84,9.84,0,0,1-1.22-4.9v-.43Z"/></g></g></svg>