<svg xmlns="http://www.w3.org/2000/svg" viewBox="0 0 716.06 38.88"><defs><style>.cls-1{fill:#991f1f;}</style></defs><g id="Layer_2" data-name="Layer 2"><g id="Layer_1-2" data-name="Layer 1"><path class="cls-1" d="M9.36,26.93v.24a2.17,2.17,0,0,0,.38,1.13,3.85,3.85,0,0,0,1.16,1.1,6.75,6.75,0,0,0,2,.84,10.78,10.78,0,0,0,2.84.34,6.67,6.67,0,0,0,3.72-.75,2,2,0,0,0,1-1.56A2.45,2.45,0,0,0,19,26.21a29.11,29.11,0,0,0-4.9-2q-2.25-.72-4.68-1.7a22.08,22.08,0,0,1-4.44-2.43,12.61,12.61,0,0,1-3.33-3.5A9,9,0,0,1,.29,11.62,10.56,10.56,0,0,1,1.37,6.79a10.81,10.81,0,0,1,3-3.65A14.28,14.28,0,0,1,9,.82,20.1,20.1,0,0,1,14.93,0,21.1,21.1,0,0,1,21,.84a14.81,14.81,0,0,1,4.85,2.42,11.65,11.65,0,0,1,3.21,3.82,10.54,10.54,0,0,1,1.18,5v.52H20.88v-.33a3.09,3.09,0,0,0-.36-1.39,3.87,3.87,0,0,0-1.08-1.3,5.87,5.87,0,0,0-1.8-.94,8,8,0,0,0-2.52-.36,5.92,5.92,0,0,0-3.5.8,2.19,2.19,0,0,0-1.06,1.75A2.2,2.2,0,0,0,12,12.72a34.83,34.83,0,0,0,4.77,1.92q1.92.67,4.37,1.66a21.82,21.82,0,0,1,4.58,2.49,13.93,13.93,0,0,1,3.6,3.7,9.18,9.18,0,0,1,1.47,5.25,9.71,9.71,0,0,1-4.25,8.31,14.77,14.77,0,0,1-4.7,2.11,23.11,23.11,0,0,1-5.93.72,24.59,24.59,0,0,1-6.27-.77,16.11,16.11,0,0,1-5-2.23,10.94,10.94,0,0,1-3.36-3.62A9.84,9.84,0,0,1,0,27.36v-.43Z"/><path class="cls-1" d="M49.1,19.44a18.17,18.17,0,0,1,1.59-7.56A19.77,19.77,0,0,1,55,5.71a20.31,20.31,0,0,1,6.34-4.17,19.92,19.92,0,0,1,15.36,0A20.26,20.26,0,0,1,83,5.71a19.58,19.58,0,0,1,4.28,6.17,18.47,18.47,0,0,1,1.56,7.56A18.47,18.47,0,0,1,87.29,27,19.58,19.58,0,0,1,83,33.17a20.26,20.26,0,0,1-6.33,4.17,19.92,19.92,0,0,1-15.36,0A20.31,20.31,0,0,1,55,33.17,19.77,19.77,0,0,1,50.69,27,18.17,18.17,0,0,1,49.1,19.44Zm9.7,0a10.11,10.11,0,0,0,3,7.22A10.22,10.22,0,0,0,65,28.82,10.23,10.23,0,0,0,76.2,26.66a10.35,10.35,0,0,0,2.16-11.2,10.11,10.11,0,0,0-2.16-3.24A10.27,10.27,0,0,0,65,10.06a10.22,10.22,0,0,0-3.24,2.16,10.11,10.11,0,0,0-3,7.22Z"/><path class="cls-1" d="M108.67.72h27.79V10H118.22v6.63h15.32v8.68H118.22V38.16h-9.55Z"/><path class="cls-1" d="M154.13.72h32.92V10H175.39V38.16h-9.6V10H154.13Z"/><path class="cls-1" d="M213.93,38.16,203.42.72h10.23l6,22.32,7-22.32h8.55l7,22.27L248.3.72h10.27L248.06,38.16h-9.93L231,16.42l-7.1,21.74Z"/><path class="cls-1" d="M294.77.72l15.12,37.44H299.42l-2.06-5.47H282.62l-2.06,5.47H270.09L285.26.72ZM290,13l-4.12,11h8.2Z"/><path class="cls-1" d="M346.89.72a16.43,16.43,0,0,1,6.24,1.08,11.71,11.71,0,0,1,6.94,7.32,16.41,16.41,0,0,1,.84,5.28,15.89,15.89,0,0,1-.46,3.84,13.22,13.22,0,0,1-1.37,3.48,12.34,12.34,0,0,1-2.3,2.93,11.85,11.85,0,0,1-3.26,2.18l8.11,11.33H350.16l-7.11-10h-4.89v10h-9.55V.72Zm-8.73,8.74v10h8.21a6.52,6.52,0,0,0,2.44-.41A4.43,4.43,0,0,0,350.45,18a4.15,4.15,0,0,0,.91-1.58,6.24,6.24,0,0,0,.29-1.87,5.43,5.43,0,0,0-1.2-3.6q-1.2-1.44-4.08-1.44Z"/><path class="cls-1" d="M381.21.72H410V10H390.81v5.38h15.75V24.1H390.81v4.8H410v9.26H381.21Z"/><path class="cls-1" d="M467.66,26.93v.24A2.17,2.17,0,0,0,468,28.3a3.85,3.85,0,0,0,1.16,1.1,6.75,6.75,0,0,0,2,.84,10.78,10.78,0,0,0,2.84.34,6.67,6.67,0,0,0,3.72-.75,2,2,0,0,0,1-1.56,2.45,2.45,0,0,0-1.49-2.06,28.75,28.75,0,0,0-4.9-2q-2.25-.72-4.68-1.7a22.08,22.08,0,0,1-4.44-2.43,12.61,12.61,0,0,1-3.33-3.5,9,9,0,0,1-1.32-4.94,10.56,10.56,0,0,1,1.08-4.83,10.81,10.81,0,0,1,3-3.65A14.28,14.28,0,0,1,467.32.82,20.1,20.1,0,0,1,473.23,0a21.1,21.1,0,0,1,6.07.84,14.81,14.81,0,0,1,4.85,2.42,11.65,11.65,0,0,1,3.21,3.82,10.54,10.54,0,0,1,1.18,5v.52h-9.36v-.33a3.09,3.09,0,0,0-.36-1.39,3.87,3.87,0,0,0-1.08-1.3,5.87,5.87,0,0,0-1.8-.94,8,8,0,0,0-2.52-.36,5.92,5.92,0,0,0-3.5.8,2.19,2.19,0,0,0-1.06,1.75,2.2,2.2,0,0,0,1.42,1.87,34.83,34.83,0,0,0,4.77,1.92q1.92.67,4.37,1.66A21.82,21.82,0,0,1,484,18.79a13.93,13.93,0,0,1,3.6,3.7,9.18,9.18,0,0,1,1.47,5.25,9.71,9.71,0,0,1-4.25,8.31,14.77,14.77,0,0,1-4.7,2.11,23.11,23.11,0,0,1-5.93.72,24.59,24.59,0,0,1-6.27-.77,16.11,16.11,0,0,1-5-2.23,10.94,10.94,0,0,1-3.36-3.62,9.84,9.84,0,0,1-1.22-4.9v-.43Z"/><path class="cls-1" d="M509.18.72h9.6V13.63L530.4.72h12.38L528,16.8l15.55,21.36H531.64L521.32,24.05l-2.54,2.83V38.16h-9.6Z"/><path class="cls-1" d="M571.48.72V38.16h-9.6V.72Z"/><path class="cls-1" d="M593.08.72h9.55V28.9h18v9.26H593.08Z"/><path class="cls-1" d="M639.93.72h9.55V28.9h17.95v9.26h-27.5Z"/><path class="cls-1" d="M694.65,26.93v.24A2.17,2.17,0,0,0,695,28.3a3.85,3.85,0,0,0,1.16,1.1,6.75,6.75,0,0,0,2,.84,10.78,10.78,0,0,0,2.84.34,6.67,6.67,0,0,0,3.72-.75,2,2,0,0,0,1-1.56,2.45,2.45,0,0,0-1.49-2.06,28.75,28.75,0,0,0-4.9-2q-2.25-.72-4.68-1.7a22.08,22.08,0,0,1-4.44-2.43,12.61,12.61,0,0,1-3.33-3.5,9,9,0,0,1-1.32-4.94,10.56,10.56,0,0,1,1.08-4.83,10.81,10.81,0,0,1,3-3.65A14.28,14.28,0,0,1,694.31.82,20.1,20.1,0,0,1,700.22,0a21.1,21.1,0,0,1,6.07.84,14.81,14.81,0,0,1,4.85,2.42,11.65,11.65,0,0,1,3.21,3.82,10.54,10.54,0,0,1,1.18,5v.52h-9.36v-.33a3.09,3.09,0,0,0-.36-1.39,3.87,3.87,0,0,0-1.08-1.3,5.87,5.87,0,0,0-1.8-.94,8,8,0,0,0-2.52-.36,5.92,5.92,0,0,0-3.5.8,2.19,2.19,0,0,0-1.06,1.75,2.2,2.2,0,0,0,1.42,1.87A34.83,34.83,0,0,0,702,14.64q1.92.67,4.37,1.66A21.82,21.82,0,0,1,711,18.79a13.93,13.93,0,0,1,3.6,3.7,9.18,9.18,0,0,1,1.47,5.25,9.71,9.71,0,0,1-4.25,8.31,14.77,14.77,0,0,1-4.7,2.11,23.11,23.11,0,0,1-5.93.72,24.59,24.59,0,0,1-6.27-.77,16.11,16.11,0,0,1-5-2.23,10.94,10.94,0,0,1-3.36-3.62,9.84,9.84,0,0,1-1.22-4.9v-.43Z"/></g></g></svg>